<svg xmlns="http://www.w3.org/2000/svg" width="661" height="4096" viewBox="0 0 661 4096" version="1.1"><path d="M 324 1568.107 C 324 3061.196, 324.084 3136.174, 325.750 3135.373 C 326.712 3134.911, 340.438 3134.387, 356.250 3134.210 L 385 3133.887 385 1566.944 L 385 0 354.500 0 L 324 0 324 1568.107 M 409.750 3223.737 C 412.637 3223.939, 417.363 3223.939, 420.250 3223.737 C 423.137 3223.535, 420.775 3223.370, 415 3223.370 C 409.225 3223.370, 406.863 3223.535, 409.750 3223.737 M 285.762 3273.707 C 287.006 3273.946, 288.806 3273.937, 289.762 3273.687 C 290.718 3273.437, 289.700 3273.241, 287.500 3273.252 C 285.300 3273.263, 284.518 3273.468, 285.762 3273.707 M 291.750 3291.706 C 292.988 3291.944, 295.012 3291.944, 296.250 3291.706 C 297.488 3291.467, 296.475 3291.272, 294 3291.272 C 291.525 3291.272, 290.512 3291.467, 291.750 3291.706 M 391.370 3409 C 391.370 3414.775, 391.535 3417.137, 391.737 3414.250 C 391.939 3411.363, 391.939 3406.637, 391.737 3403.750 C 391.535 3400.863, 391.370 3403.225, 391.370 3409 M 335.286 3414.500 C 335.294 3417.250, 335.488 3418.256, 335.718 3416.736 C 335.947 3415.216, 335.941 3412.966, 335.704 3411.736 C 335.467 3410.506, 335.279 3411.750, 335.286 3414.500 M 317.355 3423.500 C 317.352 3428.450, 317.521 3430.601, 317.731 3428.280 C 317.940 3425.959, 317.943 3421.909, 317.736 3419.280 C 317.530 3416.651, 317.358 3418.550, 317.355 3423.500 M 373.300 3420 C 373.300 3423.025, 373.487 3424.262, 373.716 3422.750 C 373.945 3421.238, 373.945 3418.762, 373.716 3417.250 C 373.487 3415.738, 373.300 3416.975, 373.300 3420 M 335.300 3432 C 335.300 3435.025, 335.487 3436.262, 335.716 3434.750 C 335.945 3433.238, 335.945 3430.762, 335.716 3429.250 C 335.487 3427.738, 335.300 3428.975, 335.300 3432 M 343.941 3582.232 C 348.114 3586.680, 348.491 3586.866, 350.191 3585.327 C 351.186 3584.427, 352 3583.438, 352 3583.131 C 352 3582.823, 351.229 3583.342, 350.287 3584.285 C 348.669 3585.902, 348.320 3585.761, 344.037 3581.749 L 339.500 3577.500 343.941 3582.232 M 443.286 3588.500 C 443.294 3591.250, 443.488 3592.256, 443.718 3590.736 C 443.947 3589.216, 443.941 3586.966, 443.704 3585.736 C 443.467 3584.506, 443.279 3585.750, 443.286 3588.500 M 311.762 3586.707 C 313.006 3586.946, 314.806 3586.937, 315.762 3586.687 C 316.718 3586.437, 315.700 3586.241, 313.500 3586.252 C 311.300 3586.263, 310.518 3586.468, 311.762 3586.707 M 298.946 3595.750 L 295.500 3599.500 299.250 3596.054 C 302.740 3592.846, 303.460 3592, 302.696 3592 C 302.529 3592, 300.842 3593.688, 298.946 3595.750 M 331 3595.500 C 332.866 3597.425, 334.617 3599, 334.892 3599 C 335.167 3599, 333.866 3597.425, 332 3595.500 C 330.134 3593.575, 328.383 3592, 328.108 3592 C 327.833 3592, 329.134 3593.575, 331 3595.500 M 423.450 3593.915 C 422.928 3594.419, 421.375 3595.032, 420 3595.279 L 417.500 3595.728 420.128 3595.864 C 421.573 3595.939, 423.315 3595.325, 424 3594.500 C 425.361 3592.860, 424.973 3592.448, 423.450 3593.915" stroke="none" fill="#4b5252" fill-rule="evenodd"/><path d="M 460.438 3389.071 C 455.870 3392.114, 445.390 3395, 438.908 3395 C 435.674 3395, 426.609 3394.041, 418.764 3392.869 C 406.448 3391.030, 400.198 3390.746, 373 3390.792 C 336.139 3390.854, 262.734 3393.647, 248.430 3395.532 C 244.477 3396.053, 244.323 3396.218, 243.041 3401.284 C 238.605 3418.818, 230.529 3435.824, 219.906 3450 C 211.219 3461.593, 187.701 3485.144, 167.500 3502.479 C 142.057 3524.313, 126.152 3540.166, 115.307 3554.500 C 82.007 3598.513, 69.123 3659.265, 80.633 3718 C 91.749 3774.723, 122.878 3830.910, 168.469 3876.544 C 203.179 3911.285, 235.139 3927.163, 284.500 3934.186 C 296.121 3935.839, 329.514 3935.839, 343 3934.186 C 404.439 3926.653, 464.090 3903.271, 506.500 3870.097 C 514.265 3864.023, 532.482 3846.166, 538.572 3838.658 C 566.536 3804.183, 581.755 3766.898, 589.656 3713.500 C 592.237 3696.060, 592.242 3653.982, 589.665 3642 C 581.261 3602.926, 569.505 3580.594, 525.930 3520.933 C 498.264 3483.053, 482.623 3454.991, 473.853 3427.500 C 469.754 3414.648, 465 3394.780, 465 3390.497 C 465 3387.168, 463.839 3386.805, 460.438 3389.071 M 375.923 3394.923 C 373.016 3397.830, 373 3397.914, 373 3409.872 C 373 3448.127, 384.894 3491.540, 412.489 3554 C 422.941 3577.659, 423.888 3580.192, 424.630 3586.505 C 425.376 3592.860, 424.199 3595, 419.954 3595 C 415.524 3595, 411.560 3590.729, 406.071 3580.044 C 403.269 3574.589, 399.800 3568.728, 398.363 3567.019 C 392.652 3560.233, 383.471 3558.242, 375.199 3561.996 C 372.691 3563.134, 366.203 3568.536, 359.631 3574.958 L 348.362 3585.969 344.931 3582.421 C 336.509 3573.713, 323.895 3568, 313.089 3568 C 304.179 3568, 298.673 3570.401, 291.016 3577.624 C 284.405 3583.860, 284.254 3583.938, 282.510 3582.011 C 279.100 3578.243, 280.876 3572.708, 291.985 3552.479 C 326.187 3490.198, 337.184 3456.490, 335.697 3418.500 C 335.088 3402.945, 333.977 3397.797, 330.739 3395.529 C 327.704 3393.404, 321.720 3393.597, 318.861 3395.912 C 316.508 3397.817, 316.500 3397.903, 316.480 3420.162 C 316.461 3441.140, 316.288 3443.230, 313.634 3454.500 C 307.979 3478.513, 296.907 3504.463, 276.518 3541.492 C 264.816 3562.745, 263.025 3566.908, 262.328 3574.468 C 261.630 3582.049, 263.141 3587.716, 267.324 3593.208 C 271.736 3599.001, 277.845 3602.268, 284.368 3602.325 C 291.103 3602.384, 296.501 3599.531, 302.222 3592.890 C 306.449 3587.984, 307.018 3587.663, 312.259 3587.228 C 320.391 3586.554, 325.378 3589.412, 335.755 3600.694 C 344.906 3610.643, 347.813 3612.182, 352.687 3609.662 C 354.245 3608.856, 357.076 3606.015, 358.979 3603.349 C 363.640 3596.815, 381.852 3578.789, 383.323 3579.252 C 383.971 3579.456, 386.800 3583.973, 389.612 3589.290 C 396.115 3601.588, 400.439 3606.833, 407.036 3610.423 C 413.569 3613.979, 423.592 3615.033, 429.076 3612.742 C 439.013 3608.590, 443.589 3600.501, 443.357 3587.500 C 443.188 3578.016, 441.935 3574.243, 429.247 3545 C 402.045 3482.307, 392.073 3446.598, 392.018 3411.700 C 391.994 3396.008, 389.954 3392, 381.989 3392 C 379.849 3392, 377.914 3392.932, 375.923 3394.923" stroke="none" fill="#f1ce42" fill-rule="evenodd"/><path d="M 299 3217.510 C 293.092 3220.910, 279.670 3225.423, 269 3227.597 C 256.086 3230.228, 254 3231.666, 254 3237.936 C 254 3241.740, 256.427 3244.968, 260.325 3246.348 C 267.363 3248.841, 304.566 3237.557, 310.339 3231.177 C 313.781 3227.374, 312.617 3220.387, 308.097 3217.716 C 304.597 3215.649, 302.323 3215.597, 299 3217.510 M 392.530 3225.507 C 382.237 3227.753, 378.806 3234.960, 385.054 3241.208 C 388.020 3244.173, 388.275 3244.237, 393.804 3243.381 C 396.937 3242.897, 407.825 3242.548, 418 3242.607 C 434.387 3242.701, 438.181 3243.057, 451.218 3245.724 C 459.314 3247.380, 467.086 3248.515, 468.491 3248.246 C 474.561 3247.086, 477.133 3238.042, 472.663 3233.572 C 470.085 3230.994, 466.645 3230.102, 445.171 3226.442 C 428.753 3223.644, 403.153 3223.190, 392.530 3225.507 M 286.500 3273.641 C 259.138 3275.608, 241.672 3279.747, 234.789 3285.897 C 232.465 3287.974, 231.800 3289.412, 231.800 3292.363 C 231.800 3300.588, 238.952 3303.255, 248.568 3298.616 C 257.087 3294.506, 268.157 3292.936, 306.026 3290.468 C 317.446 3289.723, 319.873 3288.362, 320.694 3282.242 C 321.185 3278.583, 320.893 3277.739, 318.202 3275.048 C 314.655 3271.501, 315.651 3271.545, 286.500 3273.641 M 422.329 3273.466 C 416.678 3275.909, 415.165 3282.788, 419.250 3287.465 C 421.341 3289.859, 422.843 3290.216, 440.500 3292.512 C 464.665 3295.655, 468.028 3295.682, 470.711 3292.750 C 474.901 3288.172, 474.488 3282.035, 469.794 3279.103 C 467.636 3277.755, 465.401 3277.390, 441.500 3274.476 C 434.350 3273.604, 427.825 3272.712, 427 3272.493 C 426.175 3272.274, 424.073 3272.712, 422.329 3273.466 M 377.786 3393.513 C 373.198 3396.071, 372.527 3400.553, 373.857 3419.732 C 376.434 3456.872, 385.088 3488.252, 407.117 3540.338 C 411.500 3550.698, 416.570 3562.398, 418.386 3566.338 C 423.474 3577.377, 425.142 3583.287, 424.805 3589.070 C 424.463 3594.928, 422.845 3596.680, 418.732 3595.648 C 414.613 3594.614, 410.551 3589.733, 405.523 3579.777 C 399.835 3568.516, 394.432 3562.598, 388.465 3561.096 C 379.344 3558.799, 372.654 3562.230, 358.334 3576.550 L 348.153 3586.731 343.826 3582.315 C 337.747 3576.109, 330.930 3571.989, 323.189 3569.843 C 315.160 3567.617, 311.069 3567.546, 304.560 3569.520 C 297.910 3571.537, 295.329 3573.243, 289.867 3579.227 C 284.836 3584.740, 282.725 3585.037, 280.991 3580.476 C 279.354 3576.171, 281.339 3570.738, 290.594 3554.197 C 320.082 3501.494, 332.168 3468.979, 334.925 3434.937 C 336.174 3419.510, 334.826 3401.657, 332.135 3398 C 328.312 3392.804, 321.651 3392.886, 317.712 3398.177 C 315.803 3400.741, 315.775 3401.320, 317.041 3411.969 C 319.707 3434.385, 314.588 3461.037, 301.606 3492.331 C 298.158 3500.643, 286.650 3524.286, 282.297 3532 C 272.718 3548.977, 266.531 3560.715, 264.810 3565.180 C 262.208 3571.929, 262.017 3581.980, 264.385 3587.500 C 267.973 3595.862, 276.492 3602, 284.510 3602 C 290.552 3602, 294.238 3600.025, 301.559 3592.863 C 308.697 3585.881, 312.103 3584.877, 319.889 3587.463 C 325.117 3589.200, 330.677 3593.944, 340.148 3604.750 C 344.197 3609.370, 345.210 3610, 348.582 3610 C 351.961 3610, 352.954 3609.379, 356.958 3604.758 C 365.854 3594.493, 382.938 3577.844, 383.941 3578.463 C 384.502 3578.810, 387.312 3583.685, 390.187 3589.297 C 396.663 3601.938, 403.048 3608.752, 411.319 3611.846 C 414.485 3613.031, 418.577 3614, 420.412 3614 C 429.076 3614, 438.507 3607.475, 441.618 3599.329 C 443.753 3593.739, 443.077 3580.768, 440.218 3572.500 C 439.077 3569.200, 435.145 3559.750, 431.480 3551.500 C 402.931 3487.240, 391.054 3444.773, 391.010 3406.806 C 391.001 3399.222, 390.713 3397.785, 388.750 3395.555 C 385.942 3392.364, 381.373 3391.513, 377.786 3393.513 M 62 3855.108 C 43.702 3867.538, 8.399 3893.585, 2.750 3898.824 C 0.046 3901.331, 0 3901.575, 0 3913.302 L 0 3925.230 2.730 3923.441 C 4.231 3922.458, 10.869 3917.328, 17.480 3912.042 C 41.421 3892.899, 73.495 3870, 76.366 3870 C 84.508 3870, 88.423 3859.182, 82.513 3853.013 C 80.044 3850.436, 78.893 3850.001, 74.563 3850.007 C 70.129 3850.013, 68.569 3850.647, 62 3855.108 M 570.923 3871.923 C 563.654 3879.192, 569.214 3889.220, 597.528 3919.911 C 606.452 3929.585, 618.513 3942.450, 624.330 3948.500 C 632.045 3956.525, 634.918 3960.197, 634.953 3962.076 C 635.040 3966.806, 643.212 3972, 650.568 3972 C 655.128 3972, 661 3966.672, 661 3962.534 C 661 3958.677, 659.536 3956.446, 652.121 3949.003 C 629.391 3926.187, 599.592 3894.065, 592.745 3885 C 590.875 3882.525, 588.312 3878.409, 587.047 3875.853 C 583.352 3868.383, 576.205 3866.641, 570.923 3871.923 M 167.309 3933.177 C 163.516 3934.187, 162.136 3936.055, 154.504 3950.500 C 148.086 3962.648, 135.327 3985.446, 126.943 3999.750 C 122.288 4007.691, 121.149 4009, 118.895 4009 C 112.822 4009, 108.240 4016.441, 109.346 4024.508 C 110.010 4029.349, 113.346 4035.579, 116.048 4037.026 C 119.300 4038.766, 124.722 4038.153, 127.337 4035.750 C 132.598 4030.915, 180.005 3946.903, 179.996 3942.430 C 179.990 3939.271, 176.393 3934.331, 173.344 3933.294 C 171.671 3932.725, 169.186 3932.677, 167.309 3933.177 M 449.212 3957.203 C 445.128 3958.289, 442.009 3963.086, 442.004 3968.291 C 441.999 3973.289, 444.816 3981.876, 453.226 4002.500 C 468.213 4039.253, 472.999 4053.953, 474.585 4068.105 C 475.427 4075.626, 477.011 4078.460, 481.185 4079.914 C 486.619 4081.809, 491.416 4079.705, 493.526 4074.500 C 496.377 4067.467, 490.204 4042.107, 478.799 4014 C 464.501 3978.762, 462 3971.751, 462 3966.895 C 462 3959.282, 456.648 3955.225, 449.212 3957.203 M 314.160 3981.575 C 308.778 3983.838, 308.264 3985.777, 307.690 4006 C 306.925 4032.931, 303.325 4050.853, 293.556 4076.372 C 291.320 4082.212, 291.089 4083.739, 292.013 4086.540 C 293.997 4092.551, 301.810 4095.026, 306.763 4091.213 C 311.091 4087.882, 320.101 4061.659, 323.980 4041.107 C 326.620 4027.118, 328.269 4004.069, 327.381 3993.568 C 326.825 3987, 326.301 3985.256, 324.329 3983.430 C 321.270 3980.594, 317.937 3979.986, 314.160 3981.575" stroke="none" fill="#154879" fill-rule="evenodd"/><path d="M 327 3135.067 C 306.186 3140.564, 296.682 3149.026, 291.026 3167.095 C 287.101 3179.635, 278.221 3191.108, 262.707 3203.687 C 258.764 3206.884, 254.179 3210.607, 252.519 3211.960 C 246.090 3217.197, 234.065 3230.032, 231.524 3234.370 C 224.720 3245.978, 224.531 3247.080, 224.556 3275 C 224.569 3289.025, 225.169 3313.775, 225.890 3330 C 226.610 3346.225, 227.513 3366.869, 227.896 3375.876 C 228.566 3391.651, 228.682 3392.325, 231.046 3394.254 C 233.736 3396.450, 231.369 3396.463, 271.500 3394.031 C 303.630 3392.084, 343.220 3390.823, 373.500 3390.783 C 400.140 3390.747, 406.506 3391.041, 418.764 3392.871 C 442.096 3396.354, 449.217 3395.536, 462.252 3387.876 C 476.284 3379.630, 483.417 3364.550, 484.664 3340.500 C 485.231 3329.547, 484.418 3317.237, 481.493 3292.500 C 480.648 3285.350, 479.524 3273.200, 478.996 3265.500 C 477.812 3248.244, 476.965 3241, 476.129 3241 C 475.777 3241, 474.912 3242.302, 474.207 3243.894 C 471.878 3249.157, 468.783 3249.562, 453.264 3246.636 C 427.100 3241.704, 416.989 3241.192, 393.320 3243.601 C 387.597 3244.184, 386.949 3244.040, 384.570 3241.661 C 382.687 3239.777, 382 3238.046, 382 3235.182 C 382 3229.534, 385.384 3226.505, 393.286 3225.082 C 410.816 3221.923, 429.545 3222.800, 456 3228.018 C 469.287 3230.638, 470.733 3231.138, 473.282 3233.990 L 476.064 3237.103 475.428 3234.302 C 472.750 3222.510, 468.014 3211.929, 462.294 3204.958 C 457.627 3199.271, 451.379 3194.159, 438.038 3185.112 C 429.900 3179.593, 426.277 3177.762, 421.723 3176.866 C 411.838 3174.921, 411.500 3174.341, 411.500 3159.334 C 411.500 3147.304, 411.348 3146.297, 409.074 3143.267 C 407.740 3141.488, 404.815 3138.788, 402.574 3137.267 L 398.500 3134.500 364.500 3134.321 C 345.800 3134.223, 328.925 3134.559, 327 3135.067 M 295.328 3218.965 C 287.223 3222.782, 277.564 3225.717, 267.115 3227.539 C 255.539 3229.558, 251.669 3233.437, 254.047 3240.641 C 256.198 3247.161, 260.788 3248.264, 274.185 3245.479 C 291.433 3241.894, 309.697 3234.155, 311.799 3229.542 C 313.747 3225.267, 313.229 3222.075, 310.077 3218.923 C 306.361 3215.207, 303.291 3215.216, 295.328 3218.965 M 289.500 3273.076 C 264.780 3274.695, 251.260 3277.137, 240.389 3281.946 C 234.099 3284.729, 232.171 3286.573, 231.431 3290.516 C 230.577 3295.069, 233.115 3299.553, 237.335 3300.946 C 240.277 3301.917, 241.663 3301.674, 248.256 3299.034 C 258.080 3295.100, 269.750 3293.263, 295.441 3291.607 C 316.188 3290.269, 316.404 3290.232, 318.691 3287.573 C 321.252 3284.596, 321.780 3278.599, 319.718 3275.913 C 316.560 3271.800, 313.443 3271.507, 289.500 3273.076 M 420.195 3274.489 C 418.568 3275.858, 417 3278.220, 416.710 3279.739 C 415.948 3283.725, 418.262 3288.460, 421.627 3289.798 C 423.207 3290.427, 433.836 3292.091, 445.247 3293.497 C 464.247 3295.839, 466.245 3295.925, 468.968 3294.517 C 470.603 3293.671, 472.404 3292.114, 472.970 3291.055 C 475.563 3286.212, 472.718 3278.892, 467.766 3277.662 C 465.332 3277.058, 426.654 3272, 424.468 3272 C 423.745 3272, 421.822 3273.120, 420.195 3274.489" stroke="none" fill="#cadfdf" fill-rule="evenodd"/></svg>