<?xml version="1.0" standalone="no"?>
<!DOCTYPE svg PUBLIC "-//W3C//DTD SVG 20010904//EN"
 "http://www.w3.org/TR/2001/REC-SVG-20010904/DTD/svg10.dtd">
<svg version="1.0" xmlns="http://www.w3.org/2000/svg"
 width="272.000000pt" height="338.000000pt" viewBox="0 0 272.000000 338.000000"
 preserveAspectRatio="xMidYMid meet">

<g transform="translate(0.000000,338.000000) scale(0.100000,-0.100000)"
fill="#000000" stroke="none">
<path d="M1814 2983 c-16 -21 -65 -78 -109 -128 -177 -198 -295 -344 -295
-365 0 -19 -4 -21 -27 -15 -35 9 -41 9 -77 0 l-30 -8 38 38 38 37 -110 112
c-60 61 -162 166 -227 234 -65 67 -122 122 -128 122 -14 0 -114 -105 -121
-128 -6 -16 20 -47 140 -164 81 -78 182 -178 226 -220 l79 -78 -18 -27 c-10
-15 -25 -35 -33 -43 -8 -9 -108 -113 -222 -231 -113 -118 -216 -227 -228 -242
l-22 -28 51 -54 c28 -30 51 -59 51 -64 0 -6 15 -11 33 -11 30 0 44 12 138 118
57 65 117 129 133 142 27 22 28 23 22 3 -8 -24 -25 -118 -33 -182 -4 -28 -2
-46 6 -50 9 -6 9 -33 -3 -120 -9 -61 -16 -113 -16 -115 0 -2 -41 -6 -92 -10
-145 -11 -131 -21 30 -21 81 0 134 1 119 3 -16 2 -31 10 -34 18 -8 22 28 244
41 245 6 1 0 4 -14 8 -29 8 -29 12 2 171 22 112 43 154 113 220 l37 35 -5 -40
c-3 -22 -11 -94 -17 -160 -20 -217 -16 -202 -58 -213 -28 -7 15 -10 173 -11
116 -1 215 -5 222 -9 7 -4 20 -69 31 -152 l19 -145 -21 -11 c-24 -12 -136 -7
-136 7 0 4 7 6 15 3 11 -5 15 1 15 24 0 17 3 39 6 49 5 17 5 17 -6 0 -9 -14
-15 -16 -26 -6 -12 10 -13 9 -8 -5 3 -9 2 -16 -4 -16 -5 0 -13 10 -17 23 -4
12 -8 24 -10 27 -4 10 -15 41 -20 55 -2 8 -11 12 -18 9 -18 -7 -50 -85 -39
-96 4 -4 6 -24 4 -43 -3 -27 -9 -35 -26 -36 -15 -1 -12 -3 12 -10 27 -8 32
-14 33 -42 0 -26 2 -28 8 -12 7 16 9 17 13 5 3 -8 3 -3 1 13 -4 22 -1 27 17
27 18 0 21 -5 18 -23 -2 -13 2 -29 10 -36 12 -12 13 -11 7 8 -3 11 -3 31 0 42
7 20 12 21 76 16 39 -3 71 -2 74 4 9 13 36 11 54 -4 9 -8 52 -22 96 -32 44 -9
123 -30 175 -46 52 -16 101 -29 110 -28 25 1 -138 54 -245 79 -139 33 -148 40
-162 136 -25 159 -26 184 -13 209 9 17 10 40 3 91 l-10 68 104 -108 c115 -117
103 -114 168 -55 17 15 39 29 50 31 15 2 21 12 23 38 3 33 -6 44 -188 227
-169 170 -196 200 -226 265 -20 40 -49 88 -66 105 -18 18 -28 36 -25 40 4 4
21 -10 38 -30 17 -20 34 -37 38 -37 5 0 57 53 116 118 60 64 164 175 232 245
67 70 123 133 123 140 0 7 -18 31 -41 52 -22 22 -45 50 -50 63 -6 17 -17 22
-43 22 -27 0 -39 -7 -62 -37z m81 17 c9 -14 -29 -64 -180 -236 -72 -81 -179
-203 -239 -272 l-109 -126 59 -54 c169 -158 527 -513 521 -518 -8 -9 -37 18
-331 309 -131 131 -245 237 -253 237 -7 0 -24 -10 -37 -22 -30 -29 -416 -466
-476 -537 -24 -29 -46 -49 -48 -43 -4 13 73 109 195 244 43 47 132 146 198
220 66 73 123 135 127 136 5 2 8 9 8 16 0 13 -201 214 -355 356 -44 40 2 -9
103 -109 101 -101 181 -185 178 -188 -7 -7 -51 33 -254 231 -92 90 -180 174
-195 187 -23 20 -27 29 -22 52 l7 28 52 -47 c28 -26 151 -146 273 -266 122
-120 226 -218 230 -218 9 0 43 39 204 229 31 36 104 120 161 186 116 134 172
205 164 205 -3 0 -27 -27 -53 -59 -47 -57 -150 -177 -316 -369 -45 -52 -83
-89 -85 -83 -4 11 88 124 228 282 47 53 112 128 145 167 56 68 85 86 100 62z
m-991 -40 c-14 -14 -39 14 -29 31 5 8 12 6 23 -5 11 -11 13 -19 6 -26z m-29
-30 c-10 -16 -35 7 -28 27 5 13 7 13 21 0 8 -8 11 -20 7 -27z m1055 26 c0 -8
-5 -18 -11 -22 -14 -8 -33 11 -25 25 10 16 36 13 36 -3z m-990 -20 c0 -8 10
-16 22 -20 18 -4 20 -8 11 -17 -10 -10 -18 -7 -39 14 -14 14 -23 31 -19 37 8
13 25 3 25 -14z m1015 -6 c10 -16 -16 -43 -28 -31 -11 11 -2 41 12 41 5 0 13
-5 16 -10z m-1110 -10 c11 -17 -5 -32 -21 -19 -7 6 -11 15 -8 20 7 12 21 11
29 -1z m65 -16 c0 -8 7 -14 15 -14 8 0 15 -7 15 -15 0 -8 -3 -15 -7 -15 -15 1
-54 50 -48 60 8 13 25 3 25 -16z m984 17 c3 -5 0 -14 -8 -20 -10 -9 -15 -8
-19 3 -9 22 15 37 27 17z m96 -36 c0 -19 -20 -29 -32 -17 -8 8 -7 16 2 26 14
17 30 12 30 -9z m-1115 -15 c-5 -8 -11 -8 -17 -2 -6 6 -7 16 -3 22 5 8 11 8
17 2 6 -6 7 -16 3 -22z m1033 -4 c-10 -7 -18 -18 -18 -25 0 -6 -7 -11 -15 -11
-19 0 -20 16 -2 27 8 4 17 17 21 27 5 15 9 17 19 7 9 -10 8 -15 -5 -25z m-903
15 c7 -12 -12 -24 -25 -16 -11 7 -4 25 10 25 5 0 11 -4 15 -9z m855 -6 c0 -8
-4 -15 -9 -15 -13 0 -22 16 -14 24 11 11 23 6 23 -9z m-953 -31 c-9 -9 -28 6
-21 18 4 6 10 6 17 -1 6 -6 8 -13 4 -17z m1042 -11 c-15 -18 -34 -1 -25 22 5
14 9 15 21 5 12 -10 13 -16 4 -27z m-975 19 c6 -9 -29 -42 -44 -42 -6 0 -10 5
-10 10 0 6 7 10 15 10 8 0 15 7 15 15 0 16 15 20 24 7z m61 -1 c7 -12 -12 -24
-25 -16 -11 7 -4 25 10 25 5 0 11 -4 15 -9z m795 -12 c0 -5 -4 -9 -10 -9 -5 0
-10 7 -10 16 0 8 5 12 10 9 6 -3 10 -10 10 -16z m-829 -22 c-1 -12 -15 -9 -19
4 -3 6 1 10 8 8 6 -3 11 -8 11 -12z m59 5 c0 -13 -12 -22 -22 -16 -10 6 -1 24
13 24 5 0 9 -4 9 -8z m795 -22 c-5 -8 -11 -8 -17 -2 -6 6 -7 16 -3 22 5 8 11
8 17 2 6 -6 7 -16 3 -22z m57 -2 c-15 -15 -26 -4 -18 18 5 13 9 15 18 6 9 -9
9 -15 0 -24z m-107 13 c7 -12 -12 -24 -25 -16 -11 7 -4 25 10 25 5 0 11 -4 15
-9z m-825 -22 c0 -5 -7 -9 -15 -9 -15 0 -20 12 -9 23 8 8 24 -1 24 -14z m105
-9 c-5 -8 -11 -8 -17 -2 -6 6 -7 16 -3 22 5 8 11 8 17 2 6 -6 7 -16 3 -22z
m-55 10 c0 -5 -4 -10 -10 -10 -5 0 -10 5 -10 10 0 6 5 10 10 10 6 0 10 -4 10
-10z m742 -15 c0 -5 -5 -11 -11 -13 -6 -2 -11 4 -11 13 0 9 5 15 11 13 6 -2
11 -8 11 -13z m49 -8 c-13 -13 -26 -3 -16 12 3 6 11 8 17 5 6 -4 6 -10 -1 -17z
m64 5 c0 -18 -20 -15 -23 4 -3 10 1 15 10 12 7 -3 13 -10 13 -16z m-884 -15
c-13 -13 -26 -3 -16 12 3 6 11 8 17 5 6 -4 6 -10 -1 -17z m56 -3 c-9 -9 -28 6
-21 18 4 6 10 6 17 -1 6 -6 8 -13 4 -17z m63 6 c0 -5 -7 -10 -15 -10 -8 0 -15
5 -15 10 0 6 7 10 15 10 8 0 15 -4 15 -10z m630 -21 c0 -5 -6 -9 -14 -9 -7 0
-16 -10 -20 -22 -4 -18 -8 -20 -17 -11 -9 9 -7 18 12 37 22 23 39 26 39 5z
m47 -5 c-9 -9 -28 6 -21 18 4 6 10 6 17 -1 6 -6 8 -13 4 -17z m58 -4 c-5 -8
-11 -8 -17 -2 -6 6 -7 16 -3 22 5 8 11 8 17 2 6 -6 7 -16 3 -22z m-825 5 c0
-8 -4 -15 -9 -15 -13 0 -22 16 -14 24 11 11 23 6 23 -9z m57 -11 c-9 -9 -28 6
-21 18 4 6 10 6 17 -1 6 -6 8 -13 4 -17z m58 6 c3 -5 -1 -10 -9 -10 -9 0 -16
5 -16 10 0 6 4 10 9 10 6 0 13 -4 16 -10z m621 -27 c-10 -10 -19 5 -10 18 6
11 8 11 12 0 2 -7 1 -15 -2 -18z m-706 2 c0 -8 -4 -15 -9 -15 -13 0 -22 16
-14 24 11 11 23 6 23 -9z m83 -38 c-2 -4 -15 3 -28 15 -13 12 -21 26 -18 31 2
4 15 -3 28 -15 13 -12 21 -26 18 -31z m678 40 c-1 -12 -15 -9 -19 4 -3 6 1 10
8 8 6 -3 11 -8 11 -12z m-651 -7 c0 -5 -4 -10 -10 -10 -5 0 -10 5 -10 10 0 6
5 10 10 10 6 0 10 -4 10 -10z m515 -30 c-5 -8 -11 -8 -17 -2 -6 6 -7 16 -3 22
5 8 11 8 17 2 6 -6 7 -16 3 -22z m60 20 c3 -5 -15 -30 -40 -55 -49 -50 -53
-60 -29 -69 8 -3 12 -10 9 -16 -9 -15 -25 -12 -25 4 0 8 -8 17 -17 20 -14 6
-12 11 15 36 18 16 32 34 32 39 0 6 6 11 14 11 7 0 16 9 19 20 6 22 13 25 22
10z m50 -20 c-5 -8 -11 -8 -17 -2 -6 6 -7 16 -3 22 5 8 11 8 17 2 6 -6 7 -16
3 -22z m-705 12 c0 -13 -12 -22 -22 -16 -10 6 -1 24 13 24 5 0 9 -4 9 -8z
m119 -55 c-11 -11 -23 -16 -27 -12 -4 4 -1 10 6 12 17 6 15 30 -4 37 -8 3 -12
11 -9 16 4 7 16 2 30 -12 24 -23 24 -23 4 -41z m-91 22 c-2 -6 -8 -10 -13 -10
-5 0 -11 4 -13 10 -2 6 4 11 13 11 9 0 15 -5 13 -11z m52 1 c0 -5 -4 -10 -10
-10 -5 0 -10 5 -10 10 0 6 5 10 10 10 6 0 10 -4 10 -10z m490 2 c0 -13 -12
-22 -22 -16 -10 6 -1 24 13 24 5 0 9 -4 9 -8z m110 0 c0 -13 -12 -22 -22 -16
-10 6 -1 24 13 24 5 0 9 -4 9 -8z m-627 -38 c-4 -10 -9 -12 -15 -6 -12 12 -1
35 12 27 5 -3 6 -13 3 -21z m107 0 c0 -8 4 -13 8 -10 10 6 46 -33 38 -41 -2
-3 -15 4 -27 16 -25 23 -35 26 -44 11 -4 -6 -11 -8 -16 -4 -5 3 -7 10 -3 15 3
5 10 7 15 4 5 -4 9 1 9 9 0 9 5 16 10 16 6 0 10 -7 10 -16z m384 8 c6 -10 -39
-53 -48 -45 -11 11 -6 23 9 23 8 0 15 7 15 15 0 16 15 20 24 7z m106 -7 c0 -8
-4 -15 -9 -15 -13 0 -22 16 -14 24 11 11 23 6 23 -9z m-568 -20 c0 -5 -5 -11
-11 -13 -6 -2 -11 4 -11 13 0 9 5 15 11 13 6 -2 11 -8 11 -13z m538 -10 c0 -8
-4 -15 -9 -15 -13 0 -22 16 -14 24 11 11 23 6 23 -9z m-510 -20 c0 -8 7 -15
15 -15 16 0 20 -15 7 -24 -10 -6 -53 39 -45 48 11 11 23 6 23 -9z m50 -1 c0
-8 -4 -12 -10 -9 -5 3 -10 10 -10 16 0 5 5 9 10 9 6 0 10 -7 10 -16z m328 -5
c-2 -6 -8 -10 -13 -10 -5 0 -11 4 -13 10 -2 6 4 11 13 11 9 0 15 -5 13 -11z
m52 -3 c0 -8 7 -17 16 -20 8 -3 12 -11 9 -16 -4 -7 -16 -2 -30 12 -22 22 -24
38 -4 38 5 0 9 -6 9 -14z m-306 -17 c-3 -5 -10 -7 -15 -3 -5 3 -7 10 -3 15 3
5 10 7 15 3 5 -3 7 -10 3 -15z m-44 7 c0 -3 -4 -8 -10 -11 -5 -3 -10 -1 -10 4
0 6 5 11 10 11 6 0 10 -2 10 -4z m274 -14 c7 -11 -34 -46 -42 -36 -4 4 -1 9 6
11 6 3 12 11 12 19 0 15 16 19 24 6z m50 0 c2 -4 -6 -18 -19 -30 -14 -14 -26
-19 -30 -12 -3 5 1 13 9 16 9 3 16 12 16 20 0 15 16 19 24 6z m-354 -12 c0 -5
-5 -10 -11 -10 -5 0 -7 5 -4 10 3 6 8 10 11 10 2 0 4 -4 4 -10z m50 0 c0 -5
-4 -10 -10 -10 -5 0 -10 5 -10 10 0 6 5 10 10 10 6 0 10 -4 10 -10z m-29 -33
c-13 -13 -26 -3 -16 12 3 6 11 8 17 5 6 -4 6 -10 -1 -17z m359 15 c0 -13 -12
-22 -22 -16 -10 6 -1 24 13 24 5 0 9 -4 9 -8z m-129 -35 c-13 -13 -26 -3 -16
12 3 6 11 8 17 5 6 -4 6 -10 -1 -17z m49 3 c0 -5 -4 -10 -10 -10 -5 0 -10 5
-10 10 0 6 5 10 10 10 6 0 10 -4 10 -10z m50 3 c-1 -16 -30 -46 -37 -38 -5 4
-2 10 5 12 6 3 12 11 12 19 0 8 5 14 10 14 6 0 10 -3 10 -7z m-225 -13 c25 -9
25 -11 9 -35 -21 -32 -44 -32 -74 0 l-23 25 24 9 c31 13 33 13 64 1z m155 -20
c0 -5 -4 -10 -10 -10 -5 0 -10 5 -10 10 0 6 5 10 10 10 6 0 10 -4 10 -10z m21
-33 c-13 -13 -26 -3 -16 12 3 6 11 8 17 5 6 -4 6 -10 -1 -17z m-67 -20 c27
-36 69 -127 58 -127 -4 0 90 -97 208 -215 118 -118 211 -217 207 -221 -4 -4
-98 83 -210 193 -111 110 -220 216 -242 236 -46 42 -41 60 7 26 l33 -23 -24
27 c-15 17 -35 27 -51 27 -28 0 -80 34 -80 51 0 20 33 59 51 59 10 0 29 -15
43 -33z m-179 -7 c19 -21 10 -41 -38 -79 l-30 -25 -24 30 c-23 29 -24 63 -3
89 13 16 76 6 95 -15z m-128 -66 c-9 -9 -28 6 -21 18 4 6 10 6 17 -1 6 -6 8
-13 4 -17z m228 -15 c19 -17 35 -34 35 -39 0 -10 -92 -20 -119 -13 -11 3 -21
10 -21 16 0 13 50 67 62 67 4 0 23 -14 43 -31z m-251 -10 c-3 -5 -10 -7 -15
-3 -5 3 -7 10 -3 15 3 5 10 7 15 3 5 -3 7 -10 3 -15z m42 -6 c-10 -10 -19 5
-10 18 6 11 8 11 12 0 2 -7 1 -15 -2 -18z m-66 -17 c0 -8 7 -17 16 -20 8 -3
12 -11 9 -16 -4 -7 -16 -2 -30 12 -22 22 -24 38 -4 38 5 0 9 -6 9 -14z m70
-37 c0 -6 -11 -1 -24 12 -14 13 -22 27 -19 32 6 10 43 -27 43 -44z m27 25 c-9
-9 -28 6 -21 18 4 6 10 6 17 -1 6 -6 8 -13 4 -17z m-125 -19 c0 -5 -5 -11 -11
-13 -6 -2 -11 4 -11 13 0 9 5 15 11 13 6 -2 11 -8 11 -13z m145 -58 c-24 -29
-105 -117 -178 -197 -74 -80 -154 -169 -178 -198 -42 -49 -61 -63 -61 -44 0 5
30 43 68 84 37 41 110 124 162 183 146 167 224 247 228 235 2 -6 -16 -34 -41
-63z m221 52 c-2 -6 -8 -10 -13 -10 -5 0 -11 4 -13 10 -2 6 4 11 13 11 9 0 15
-5 13 -11z m-393 -29 c-5 -8 -11 -8 -17 -2 -6 6 -7 16 -3 22 5 8 11 8 17 2 6
-6 7 -16 3 -22z m53 9 c-2 -6 -8 -10 -13 -10 -5 0 -11 4 -13 10 -2 6 4 11 13
11 9 0 15 -5 13 -11z m52 -4 c0 -8 -4 -15 -9 -15 -13 0 -22 16 -14 24 11 11
23 6 23 -9z m208 4 c-26 -15 -22 -29 21 -74 l39 -40 12 -135 c7 -74 14 -137
16 -139 7 -8 4 102 -6 173 -7 60 -6 72 8 83 19 14 35 13 30 -2 -2 -6 -10 -8
-17 -7 -19 5 -6 -13 57 -80 40 -41 47 -56 62 -130 10 -46 15 -87 13 -91 -5 -8
-30 -6 -105 9 -17 3 -28 13 -29 22 -1 15 -2 15 -6 1 -5 -20 -97 -31 -183 -22
l-60 6 5 31 c3 17 12 108 20 202 8 94 17 179 21 188 5 12 20 16 63 16 43 -1
52 -3 39 -11z m46 -10 c-3 -5 -10 -7 -15 -3 -5 3 -7 10 -3 15 3 5 10 7 15 3 5
-3 7 -10 3 -15z m61 1 c-3 -5 -10 -10 -16 -10 -5 0 -9 5 -9 10 0 6 7 10 16 10
8 0 12 -4 9 -10z m-445 -21 c0 -5 -7 -9 -15 -9 -8 0 -15 -7 -15 -15 0 -15 -12
-20 -23 -9 -8 9 35 54 45 48 5 -3 8 -9 8 -15z m380 -29 c0 -5 5 -9 11 -7 6 1
14 -4 16 -10 8 -23 -12 -13 -44 21 -18 18 -29 36 -26 40 8 7 43 -29 43 -44z
m-330 31 c0 -6 -4 -13 -10 -16 -5 -3 -10 1 -10 9 0 9 5 16 10 16 6 0 10 -4 10
-9z m58 -2 c-2 -6 -8 -10 -13 -10 -5 0 -11 4 -13 10 -2 6 4 11 13 11 9 0 15
-5 13 -11z m302 1 c0 -5 -4 -10 -10 -10 -5 0 -10 5 -10 10 0 6 5 10 10 10 6 0
10 -4 10 -10z m60 2 c0 -13 -12 -22 -22 -16 -10 6 -1 24 13 24 5 0 9 -4 9 -8z
m-395 -42 c-5 -8 -11 -8 -17 -2 -6 6 -7 16 -3 22 5 8 11 8 17 2 6 -6 7 -16 3
-22z m388 -23 c-2 -4 -15 3 -28 15 -13 12 -21 26 -18 31 2 4 15 -3 28 -15 13
-12 21 -26 18 -31z m-443 33 c0 -5 -4 -10 -10 -10 -5 0 -10 5 -10 10 0 6 5 10
10 10 6 0 10 -4 10 -10z m478 -1 c-2 -6 -8 -10 -13 -10 -5 0 -11 4 -13 10 -2
6 4 11 13 11 9 0 15 -5 13 -11z m-558 -23 c0 -8 -4 -17 -9 -21 -12 -7 -24 12
-16 25 9 15 25 12 25 -4z m51 -9 c-13 -13 -26 -3 -16 12 3 6 11 8 17 5 6 -4 6
-10 -1 -17z m54 -7 c-5 -8 -11 -8 -17 -2 -6 6 -7 16 -3 22 5 8 11 8 17 2 6 -6
7 -16 3 -22z m480 0 c-5 -8 -11 -8 -17 -2 -6 6 -7 16 -3 22 5 8 11 8 17 2 6
-6 7 -16 3 -22z m-91 -11 c-3 -5 -10 -7 -15 -3 -5 3 -7 10 -3 15 3 5 10 7 15
3 5 -3 7 -10 3 -15z m-473 -12 c-13 -13 -26 -3 -16 12 3 6 11 8 17 5 6 -4 6
-10 -1 -17z m530 10 c-1 -12 -15 -9 -19 4 -3 6 1 10 8 8 6 -3 11 -8 11 -12z
m60 -10 c-13 -13 -26 -3 -16 12 3 6 11 8 17 5 6 -4 6 -10 -1 -17z m-644 1 c-2
-7 -10 -12 -17 -10 -8 2 -10 -3 -7 -13 4 -9 1 -15 -7 -15 -25 0 -27 14 -4 32
27 21 42 23 35 6z m113 -3 c0 -8 -4 -15 -9 -15 -13 0 -22 16 -14 24 11 11 23
6 23 -9z m-85 -35 c-5 -8 -11 -8 -17 -2 -6 6 -7 16 -3 22 5 8 11 8 17 2 6 -6
7 -16 3 -22z m585 20 c0 -5 -7 -10 -15 -10 -8 0 -15 -4 -15 -10 0 -5 -8 -10
-17 -10 -15 0 -13 4 7 20 28 22 40 25 40 10z m65 -1 c4 -6 -2 -13 -14 -16 -12
-3 -21 -9 -21 -14 0 -5 -6 -9 -14 -9 -8 0 -17 -7 -20 -16 -3 -8 -11 -12 -17
-9 -11 7 22 45 40 45 5 0 11 7 15 15 6 17 22 20 31 4z m-590 -8 c7 -12 -12
-24 -25 -16 -11 7 -4 25 10 25 5 0 11 -4 15 -9z m-142 -25 c6 -16 -2 -28 -14
-20 -12 7 -11 34 0 34 5 0 11 -6 14 -14z m762 5 c7 -12 -12 -24 -25 -16 -11 7
-4 25 10 25 5 0 11 -4 15 -9z m-705 -9 c0 -13 -12 -22 -22 -16 -10 6 -1 24 13
24 5 0 9 -4 9 -8z m55 -1 c7 -12 -12 -24 -25 -16 -11 7 -4 25 10 25 5 0 11 -4
15 -9z m-140 -41 c-5 -8 -11 -8 -17 -2 -6 6 -7 16 -3 22 5 8 11 8 17 2 6 -6 7
-16 3 -22z m755 20 c0 -5 -7 -10 -15 -10 -8 0 -15 5 -15 10 0 6 7 10 15 10 8
0 15 -4 15 -10z m60 -5 c0 -8 -7 -15 -15 -15 -8 0 -15 -4 -15 -10 0 -5 -7 -10
-15 -10 -8 0 -15 5 -15 10 0 6 6 10 14 10 8 0 16 7 20 15 3 8 10 15 16 15 5 0
10 -7 10 -15z m-760 -4 c0 -6 -4 -13 -10 -16 -5 -3 -10 1 -10 9 0 9 5 16 10
16 6 0 10 -4 10 -9z m52 -6 c0 -5 -5 -11 -11 -13 -6 -2 -11 4 -11 13 0 9 5 15
11 13 6 -2 11 -8 11 -13z m609 -8 c-1 -12 -15 -9 -19 4 -3 6 1 10 8 8 6 -3 11
-8 11 -12z m-748 -28 c-17 -17 -37 -1 -22 17 8 10 15 12 23 4 7 -7 7 -13 -1
-21z m877 10 c0 -5 -7 -9 -15 -9 -15 0 -20 12 -9 23 8 8 24 -1 24 -14z m-820
-4 c0 -8 -4 -15 -10 -15 -5 0 -10 7 -10 15 0 8 5 15 10 15 6 0 10 -7 10 -15z
m52 0 c0 -5 -5 -11 -11 -13 -6 -2 -11 4 -11 13 0 9 5 15 11 13 6 -2 11 -8 11
-13z m673 -4 c7 -12 -12 -24 -25 -16 -11 7 -4 25 10 25 5 0 11 -4 15 -9z m56
-14 c-1 -12 -15 -9 -19 4 -3 6 1 10 8 8 6 -3 11 -8 11 -12z m69 -8 c0 -5 -7
-9 -15 -9 -15 0 -20 12 -9 23 8 8 24 -1 24 -14z m-934 0 c3 -6 1 -16 -5 -22
-9 -9 -14 -8 -21 3 -9 15 -4 30 10 30 5 0 12 -5 16 -11z m54 -3 c0 -17 -14
-29 -23 -20 -8 8 3 34 14 34 5 0 9 -6 9 -14z m53 -12 c-4 -10 -9 -12 -15 -6
-12 12 -1 35 12 27 5 -3 6 -13 3 -21z m728 3 c-1 -12 -15 -9 -19 4 -3 6 1 10
8 8 6 -3 11 -8 11 -12z m64 -7 c3 -5 -1 -10 -9 -10 -9 0 -16 5 -16 10 0 6 4
10 9 10 6 0 13 -4 16 -10z m65 -11 c0 -5 -7 -9 -15 -9 -15 0 -20 12 -9 23 8 8
24 -1 24 -14z m-997 -3 c7 -19 -18 -42 -28 -26 -8 13 1 40 14 40 5 0 11 -6 14
-14z m112 -16 c-5 -8 -11 -8 -17 -2 -6 6 -7 16 -3 22 5 8 11 8 17 2 6 -6 7
-16 3 -22z m-55 5 c0 -8 -4 -15 -9 -15 -13 0 -22 16 -14 24 11 11 23 6 23 -9z
m840 7 c0 -13 -12 -22 -22 -16 -10 6 -1 24 13 24 5 0 9 -4 9 -8z m65 -12 c3
-5 -1 -10 -9 -10 -8 0 -18 5 -21 10 -3 6 1 10 9 10 8 0 18 -4 21 -10z m62 -16
c-9 -9 -28 6 -21 18 4 6 10 6 17 -1 6 -6 8 -13 4 -17z m-1062 -4 c10 -16 -16
-43 -28 -31 -11 11 -2 41 12 41 5 0 13 -5 16 -10z m65 -4 c0 -8 -4 -17 -9 -21
-12 -7 -24 12 -16 25 9 15 25 12 25 -4z m60 -1 c0 -8 -7 -15 -15 -15 -16 0
-20 12 -8 23 11 12 23 8 23 -8z m844 6 c3 -5 0 -11 -8 -14 -15 -6 -26 1 -26
15 0 11 27 10 34 -1z m66 -12 c0 -5 -7 -9 -15 -9 -15 0 -20 12 -9 23 8 8 24
-1 24 -14z m65 0 c10 -15 -1 -23 -20 -15 -9 3 -13 10 -10 16 8 13 22 13 30 -1z
m-1065 -34 c0 -19 -20 -29 -32 -17 -8 8 -7 16 2 26 14 17 30 12 30 -9z m52 -7
c-15 -15 -26 -4 -18 18 5 13 9 15 18 6 9 -9 9 -15 0 -24z m913 23 c7 -12 -12
-24 -25 -16 -11 7 -4 25 10 25 5 0 11 -4 15 -9z m66 -16 c-1 -15 -24 -12 -29
3 -3 9 2 13 12 10 10 -1 17 -7 17 -13z m64 -15 c-5 -8 -11 -8 -17 -2 -6 6 -7
16 -3 22 5 8 11 8 17 2 6 -6 7 -16 3 -22z m-97 -8 c2 -7 -6 -12 -17 -12 -21 0
-27 11 -14 24 9 9 26 2 31 -12z m-975 -23 c-17 -17 -37 -1 -22 17 8 10 15 12
23 4 7 -7 7 -13 -1 -21z m1042 22 c7 -12 -12 -24 -25 -16 -11 7 -4 25 10 25 5
0 11 -4 15 -9z m73 -19 c3 -9 -2 -13 -14 -10 -9 1 -19 9 -22 16 -3 9 2 13 14
10 9 -1 19 -9 22 -16z m-108 -18 c0 -17 -26 -19 -36 -3 -7 12 15 31 28 23 4
-3 8 -12 8 -20z m69 2 c9 -10 9 -16 1 -21 -13 -8 -42 14 -34 26 8 13 20 11 33
-5z m-33 -27 c3 -6 1 -16 -4 -21 -13 -13 -45 8 -36 23 7 12 31 11 40 -2z"/>
<path d="M790 2877 c0 -2 15 -16 33 -33 l32 -29 -29 33 c-28 30 -36 37 -36 29z"/>
<path d="M1265 1737 c-13 -10 -15 -16 -6 -22 9 -5 7 -11 -8 -22 -12 -8 -21
-25 -21 -39 0 -25 15 -33 24 -11 3 6 3 -6 -1 -28 -3 -22 -12 -47 -19 -56 -8
-8 -14 -31 -14 -51 0 -33 -1 -34 -32 -32 l-33 3 31 -8 c48 -12 54 -19 54 -62
0 -21 3 -39 8 -39 4 0 6 19 5 43 -2 32 -1 37 6 22 5 -11 12 -37 16 -57 6 -40
35 -54 35 -18 0 11 -4 20 -10 20 -5 0 -9 15 -9 33 l1 32 7 -30 c7 -30 7 -29
15 13 4 24 13 45 20 48 7 3 12 32 14 74 2 66 1 70 -21 70 -19 1 -20 2 -5 10
15 9 15 13 1 40 -8 17 -19 30 -24 30 -5 0 -7 11 -3 25 7 28 -3 32 -31 12z"/>
<path d="M765 1450 c-33 -17 -85 -53 -115 -80 l-55 -51 59 47 c33 26 92 62
130 80 39 18 64 33 56 33 -8 0 -42 -13 -75 -29z"/>
<path d="M560 1215 c0 -78 2 -85 20 -85 13 0 20 7 20 19 0 16 10 19 66 23 55
3 70 8 85 27 24 30 24 56 -1 81 -17 17 -33 20 -105 20 l-85 0 0 -85z m160 40
c28 -33 -18 -58 -90 -47 -25 4 -30 9 -30 33 0 28 1 29 54 29 35 0 58 -5 66
-15z"/>
<path d="M790 1215 c0 -78 2 -85 20 -85 13 0 20 7 20 20 0 17 7 20 41 20 32 0
46 -6 61 -25 31 -40 65 -27 39 14 -6 10 -3 23 11 41 22 31 17 75 -12 90 -10 6
-55 10 -99 10 l-81 0 0 -85z m154 42 c40 -29 -12 -60 -84 -49 -25 4 -30 9 -30
33 0 28 2 29 48 29 27 0 56 -6 66 -13z"/>
<path d="M1046 1279 c-21 -17 -26 -29 -26 -65 0 -54 22 -79 79 -89 87 -15 150
37 136 111 -8 46 -38 64 -106 64 -42 0 -63 -5 -83 -21z m136 -26 c22 -20 23
-56 2 -77 -18 -19 -94 -22 -112 -4 -18 18 -15 75 6 87 27 16 83 13 104 -6z"/>
<path d="M1340 1285 c0 -11 12 -15 45 -15 l45 0 0 -43 c0 -54 -13 -67 -67 -67
-37 0 -45 4 -55 25 -12 26 -48 35 -48 11 0 -51 87 -89 153 -67 42 14 57 45 57
116 l0 55 -65 0 c-51 0 -65 -3 -65 -15z"/>
<path d="M1500 1215 l0 -85 90 0 c73 0 90 3 90 15 0 12 -14 15 -70 15 -63 0
-70 2 -70 20 0 18 7 20 70 20 56 0 70 3 70 15 0 12 -14 15 -70 15 -63 0 -70 2
-70 20 0 18 7 20 70 20 56 0 70 3 70 15 0 12 -17 15 -90 15 l-90 0 0 -85z"/>
<path d="M1700 1285 c0 -11 12 -15 45 -15 l45 0 0 -70 c0 -63 2 -70 20 -70 18
0 20 7 20 70 l0 70 45 0 c33 0 45 4 45 15 0 12 -19 15 -110 15 -91 0 -110 -3
-110 -15z"/>
<path d="M1965 1275 c-33 -32 -33 -84 -1 -122 22 -25 31 -28 86 -28 55 1 65 4
86 28 32 38 32 90 -1 122 -20 21 -34 25 -85 25 -51 0 -65 -4 -85 -25z m137
-22 c20 -18 23 -45 8 -74 -8 -15 -21 -19 -58 -19 -27 0 -53 5 -60 12 -13 13
-16 57 -4 74 18 27 87 32 114 7z"/>
<path d="M340 1057 c-59 -31 -85 -82 -85 -164 0 -52 5 -68 31 -105 21 -30 42
-47 71 -57 23 -8 47 -25 54 -38 16 -29 90 -65 126 -61 22 2 29 9 31 29 3 24
-1 27 -37 33 -22 3 -42 10 -45 15 -3 4 11 19 32 32 111 72 107 259 -8 317 -57
28 -115 28 -170 -1z m131 -57 c25 -14 49 -62 49 -100 0 -38 -24 -86 -49 -100
-37 -19 -88 -12 -109 15 -41 52 -35 147 11 180 25 17 70 20 98 5z"/>
<path d="M1616 1070 c-67 -21 -108 -86 -107 -171 0 -65 15 -100 61 -144 29
-28 37 -30 105 -30 82 0 111 14 153 75 17 26 22 47 22 100 0 73 -19 114 -71
152 -29 22 -120 32 -163 18z m125 -89 c24 -25 29 -38 29 -79 0 -86 -62 -134
-135 -106 -39 15 -59 118 -33 167 29 56 93 64 139 18z"/>
<path d="M660 948 c1 -193 31 -235 160 -226 104 7 130 58 130 254 l0 94 -40 0
-40 0 0 -112 c0 -136 -10 -162 -61 -166 -62 -5 -69 11 -69 154 l0 124 -40 0
-40 0 0 -122z"/>
<path d="M1022 898 l3 -173 38 -3 37 -3 0 175 0 176 -40 0 -40 0 2 -172z"/>
<path d="M1160 1065 c0 -3 23 -39 50 -80 28 -41 50 -76 50 -78 0 -2 -25 -41
-55 -86 -30 -45 -55 -86 -55 -92 0 -5 17 -9 38 -9 36 0 41 4 77 60 21 33 42
60 46 60 3 0 21 -27 38 -60 32 -60 33 -60 77 -60 24 0 44 4 44 9 0 5 -23 44
-52 87 -28 44 -51 84 -51 90 0 6 21 43 46 82 26 40 47 75 47 77 0 3 -18 5 -40
5 -37 0 -42 -3 -71 -50 -17 -27 -32 -50 -34 -50 -2 0 -17 23 -35 50 -31 48
-34 50 -76 50 -24 0 -44 -2 -44 -5z"/>
<path d="M1890 1040 c0 -29 1 -30 50 -30 l49 0 3 -142 3 -143 38 -3 37 -3 0
145 0 146 55 0 c54 0 55 0 55 30 l0 30 -145 0 -145 0 0 -30z"/>
<path d="M2230 895 l0 -176 123 3 122 3 3 33 3 32 -85 0 -86 0 0 40 0 39 68 3
67 3 3 33 3 32 -70 0 -71 0 0 35 0 35 75 0 75 0 0 30 0 30 -115 0 -115 0 0
-175z"/>
<path d="M1820 683 c-434 -13 -1097 -70 -1295 -112 -66 -14 -11 -12 93 4 215
32 744 66 1320 85 385 13 431 13 412 0 -11 -7 7 -9 59 -8 78 3 106 21 50 32
-30 6 -431 5 -639 -1z"/>
<path d="M2278 643 c12 -2 30 -2 40 0 9 3 -1 5 -23 4 -22 0 -30 -2 -17 -4z"/>
<path d="M2163 633 c9 -2 25 -2 35 0 9 3 1 5 -18 5 -19 0 -27 -2 -17 -5z"/>
<path d="M2028 623 c12 -2 30 -2 40 0 9 3 -1 5 -23 4 -22 0 -30 -2 -17 -4z"/>
<path d="M428 553 c6 -2 18 -2 25 0 6 3 1 5 -13 5 -14 0 -19 -2 -12 -5z"/>
<path d="M368 543 c7 -3 16 -2 19 1 4 3 -2 6 -13 5 -11 0 -14 -3 -6 -6z"/>
<path d="M318 533 c7 -3 16 -2 19 1 4 3 -2 6 -13 5 -11 0 -14 -3 -6 -6z"/>
<path d="M258 523 c7 -3 16 -2 19 1 4 3 -2 6 -13 5 -11 0 -14 -3 -6 -6z"/>
</g>
</svg>
