<svg xmlns="http://www.w3.org/2000/svg" width="619" height="774" viewBox="0 0 619 774" version="1.1"><path d="" stroke="none" fill="#080404" fill-rule="evenodd"/><path d="M 409.130 96.932 C 403.497 104.045, 394.525 114.536, 389.194 120.245 C 376.922 133.387, 359.427 153.727, 344.249 172.500 C 341.516 175.881, 329.732 188.986, 325.361 193.507 C 321.731 197.260, 321.134 198.540, 320.512 203.894 C 320.100 207.447, 319.322 209.991, 318.652 209.978 C 318.018 209.966, 315.538 209.066, 313.141 207.978 C 307.623 205.474, 304.376 205.487, 297.907 208.037 C 295.065 209.157, 292.546 209.879, 292.309 209.642 C 292.072 209.406, 293.818 207.813, 296.189 206.103 C 298.560 204.394, 301.571 201.421, 302.879 199.498 C 304.187 197.574, 305.650 196, 306.129 196 C 306.608 196, 307 194.969, 307 193.709 C 307 192.080, 302.730 187.208, 292.250 176.881 C 284.137 168.886, 267.375 151.915, 255 139.169 C 206.308 89.016, 203.256 86, 201.204 86 C 199.833 86, 196.666 89.109, 191.526 95.500 C 187.072 101.037, 183.147 105, 182.117 105 C 178.258 105, 174 112.151, 174 118.631 C 174 122.871, 175.460 125.798, 178.909 128.469 C 184.907 133.114, 204.366 151.600, 232.234 179.129 C 248.588 195.283, 264.927 211.369, 268.543 214.875 C 272.434 218.648, 274.903 221.811, 274.590 222.625 C 274.300 223.381, 273.672 224, 273.195 224 C 272.718 224, 271.075 226.475, 269.544 229.500 C 268.014 232.525, 266.397 235, 265.952 235 C 265.507 235, 264.548 235.620, 263.821 236.379 C 263.095 237.137, 255.532 245.124, 247.015 254.129 C 238.499 263.133, 224.774 277.487, 216.515 286.026 C 194.600 308.686, 165.843 338.871, 161.643 343.621 C 156.075 349.920, 156.531 351.492, 166.917 361.809 C 172.217 367.074, 176.725 372.565, 178.033 375.346 C 179.242 377.920, 180.584 380.243, 181.013 380.508 C 182.775 381.597, 191.797 381.327, 194.768 380.096 C 196.578 379.347, 200.446 375.689, 203.714 371.638 C 218.857 352.864, 254 315.229, 254 317.786 C 254 318.385, 253.278 321.941, 252.396 325.688 C 251.513 329.435, 250.417 335.200, 249.960 338.500 C 249.502 341.800, 248.462 347.650, 247.648 351.500 C 246.833 355.350, 245.862 361.295, 245.490 364.711 C 244.855 370.534, 244.975 371.072, 247.406 373.326 C 250.247 375.958, 250.495 377.916, 249.024 386.083 C 248.488 389.062, 247.359 396.675, 246.517 403 C 245.674 409.325, 244.440 417.538, 243.775 421.250 L 242.566 428 232.533 427.988 C 219.804 427.972, 199.624 430.730, 194.790 433.146 C 192.749 434.166, 190.109 435, 188.924 435 C 185.239 435, 164.343 445.802, 158.273 450.844 C 155.098 453.482, 151.150 456.497, 149.500 457.545 C 146.770 459.277, 135 470.698, 135 471.614 C 135 471.826, 135.685 472, 136.522 472 C 137.360 472, 140.397 469.594, 143.272 466.652 C 146.148 463.711, 149.850 460.465, 151.500 459.439 C 153.150 458.412, 156.300 456.133, 158.500 454.374 C 163.464 450.405, 176.426 443, 178.409 443 C 179.217 443, 182.943 441.427, 186.689 439.505 C 190.435 437.583, 194.889 436.008, 196.587 436.005 C 198.285 436.002, 204.135 435.328, 209.587 434.506 C 222.374 432.579, 240.146 432.592, 252.074 434.538 C 268.145 437.160, 278.742 439.223, 279.939 439.963 C 280.592 440.366, 281.392 444.946, 281.794 450.574 C 282.386 458.875, 282.783 460.531, 284.250 460.812 C 285.603 461.071, 286 460.464, 286 458.138 C 286 456.484, 285.526 453.884, 284.947 452.360 C 284.367 450.836, 284.189 447.839, 284.551 445.699 C 285.590 439.550, 287.261 442.796, 287.794 451.998 C 288.154 458.227, 288.665 460.352, 290.031 461.309 C 291.005 461.991, 291.959 463.628, 292.151 464.946 C 292.604 468.055, 294.173 468.504, 296.828 466.283 C 298.744 464.679, 298.856 464.056, 297.938 460.087 C 296.490 453.831, 299.228 444.819, 302.382 445.457 C 303.547 445.692, 306.188 446.156, 308.250 446.488 C 311.601 447.027, 312 447.405, 312 450.045 C 312 454.047, 313.784 453.811, 314.231 449.750 C 314.447 447.786, 314.919 449.764, 315.423 454.750 C 316.137 461.802, 316.526 463, 318.104 463 C 319.604 463, 319.842 462.461, 319.374 460.121 C 319.036 458.428, 319.273 456.949, 319.951 456.530 C 320.740 456.042, 321.009 456.715, 320.802 458.659 C 320.591 460.642, 320.949 461.500, 321.986 461.500 C 324.154 461.500, 324.395 458.445, 322.585 453.920 C 321.713 451.742, 321 449.519, 321 448.980 C 321 447.269, 328.718 447.823, 329.393 449.582 C 330.541 452.574, 329.996 455.376, 327.813 457.699 C 326.171 459.446, 325.912 460.312, 326.771 461.171 C 327.630 462.030, 328.300 461.996, 329.458 461.035 C 330.763 459.952, 331 460.073, 331 461.819 C 331 464.209, 332.110 465.168, 333.722 464.172 C 334.550 463.660, 334.559 462.390, 333.755 459.378 C 332.924 456.264, 332.973 454.166, 333.961 450.640 C 335.469 445.254, 334.023 445.524, 352.912 447.105 C 364.627 448.085, 366.310 448.029, 367.884 446.605 C 370.755 444.007, 376.211 444.591, 380.437 447.950 C 382.755 449.792, 385.905 451.153, 388.824 451.573 C 391.396 451.943, 397.550 453.272, 402.500 454.527 C 407.450 455.782, 414.200 457.339, 417.500 457.988 C 420.800 458.637, 428 460.650, 433.500 462.461 C 439 464.272, 445.075 466.070, 447 466.457 C 448.925 466.844, 452.758 467.979, 455.518 468.979 C 461.670 471.209, 472 472.633, 472 471.251 C 472 469.663, 432.960 456.960, 422.055 454.999 C 419.550 454.548, 412.377 452.789, 406.116 451.090 C 399.854 449.390, 393.779 447.999, 392.616 447.997 C 391.452 447.996, 387.890 446.421, 384.700 444.497 C 381.510 442.574, 378.493 441, 377.995 441 C 377.498 441, 376.886 439.538, 376.637 437.750 C 376.387 435.962, 375.667 431.350, 375.037 427.500 C 374.407 423.650, 373.433 417.125, 372.873 413 C 372.312 408.875, 371.212 401.205, 370.427 395.956 C 368.211 381.133, 368.468 376.222, 371.614 373.307 C 373.777 371.302, 374.112 370.335, 373.557 367.693 C 373.188 365.937, 372.499 360.874, 372.025 356.442 C 371.551 352.010, 370.831 346.610, 370.426 344.442 L 369.690 340.500 374.095 344.457 C 376.518 346.633, 379.254 349.361, 380.175 350.520 C 381.097 351.678, 389.514 360.442, 398.880 369.994 C 414.572 385.999, 416.089 387.281, 418.204 386.316 C 420.511 385.264, 432.603 375.451, 436.769 371.250 C 438.034 369.974, 440.223 369, 441.826 369 C 443.538 369, 445.566 368.026, 446.973 366.529 C 449.057 364.310, 449.234 363.414, 448.706 357.759 L 448.118 351.460 428.809 331.516 C 407.374 309.375, 390.418 292.425, 372.750 275.478 C 365.794 268.806, 361 263.429, 361 262.299 C 361 261.250, 359.744 258.391, 358.208 255.946 C 356.673 253.501, 353.114 246.775, 350.299 241 C 346.472 233.146, 343.524 228.736, 338.604 223.500 C 334.986 219.650, 332.020 216.189, 332.013 215.809 C 331.963 213.139, 334.843 215.229, 342 223.060 C 346.536 228.023, 350.530 231.953, 350.874 231.792 C 351.854 231.335, 374.603 206.841, 392.011 187.500 C 400.485 178.085, 416.246 161.489, 432.847 144.500 C 449.122 127.845, 458.005 116.735, 457.276 113.948 C 456.999 112.886, 452.593 107.832, 447.486 102.717 C 442.162 97.385, 437.502 91.743, 436.562 89.493 C 435.660 87.336, 434.377 85.224, 433.711 84.800 C 433.045 84.377, 429.546 84.024, 425.936 84.015 L 419.372 84 409.130 96.932 M 415.226 95.767 C 396.148 119.281, 390.419 126.051, 384.188 132.445 C 380.407 136.325, 374.581 142.905, 371.242 147.067 C 367.902 151.229, 363.206 156.629, 360.804 159.067 C 358.403 161.505, 352.998 167.775, 348.793 173 C 344.588 178.225, 337.064 187.155, 332.074 192.845 C 327.083 198.535, 323.032 203.485, 323.070 203.845 C 323.109 204.205, 323.473 205.348, 323.880 206.384 C 324.514 207.998, 325.150 207.530, 328.321 203.116 C 333.001 196.601, 344.015 183.726, 349.386 178.490 C 351.649 176.284, 358.272 168.634, 364.105 161.490 C 369.938 154.345, 381.413 140.942, 389.605 131.705 C 397.797 122.467, 407.334 111.217, 410.797 106.705 C 414.261 102.192, 419.420 96.138, 422.263 93.250 L 427.432 88 424.466 88.017 C 421.983 88.031, 420.478 89.293, 415.226 95.767 M 422.500 97.279 C 413.067 109.445, 398.004 127.374, 392.069 133.500 C 386.059 139.702, 372.915 154.889, 369.288 159.821 C 365.209 165.365, 356.301 175.822, 350.391 182 C 347.498 185.025, 341.790 191.905, 337.707 197.289 C 333.624 202.672, 327.388 210.097, 323.850 213.789 C 320.311 217.480, 315.693 222.637, 313.587 225.250 C 309.154 230.750, 306.970 231.166, 301.954 227.466 C 300.065 226.072, 278.490 205.209, 254.010 181.103 C 195.263 123.255, 181.923 110.819, 180.172 112.272 C 178.839 113.379, 185.614 120.521, 203.087 136.428 C 213.010 145.461, 243.971 175.179, 273.900 204.396 C 305.682 235.423, 305.778 235.552, 300.669 240.244 C 299.318 241.485, 290.445 251.275, 280.952 262 C 271.459 272.725, 258.956 286.450, 253.167 292.500 C 247.377 298.550, 238.504 308.450, 233.448 314.500 C 228.393 320.550, 223.138 326.400, 221.771 327.500 C 219.415 329.397, 211.111 338.958, 197.277 355.702 C 193.854 359.845, 189.017 365.413, 186.527 368.075 C 181.647 373.291, 181.289 374.165, 183.330 375.859 C 184.898 377.160, 187.341 374.795, 194.033 365.500 C 196.409 362.200, 201.910 355.720, 206.256 351.099 C 210.603 346.479, 215.872 340.404, 217.964 337.599 C 220.056 334.795, 223.209 331.150, 224.971 329.500 C 226.732 327.850, 231.376 322.675, 235.290 318 C 239.203 313.325, 245.577 306.095, 249.453 301.934 C 253.329 297.773, 260.100 290.149, 264.500 284.992 C 268.900 279.836, 277 270.806, 282.500 264.926 C 288 259.047, 295.824 250.583, 299.887 246.118 C 304.104 241.484, 308.077 238, 309.146 238 C 311.137 238, 314.532 240.943, 339 263.875 C 355.433 279.277, 374.617 298.284, 387.065 311.500 C 391.210 315.900, 397.954 322.685, 402.051 326.577 C 406.148 330.469, 411.981 336.319, 415.014 339.577 C 421.833 346.903, 440.692 364, 441.954 364 C 444.363 364, 444.074 361.466, 441.410 359.228 C 436.063 354.736, 402.990 322.762, 379.111 299 C 366.123 286.075, 345.709 266.299, 333.748 255.054 C 321.787 243.808, 312 234.011, 312 233.281 C 312 232.552, 313.701 230.053, 315.780 227.728 C 317.859 225.402, 321.332 221.250, 323.496 218.500 C 325.661 215.750, 327.696 213.275, 328.019 213 C 328.342 212.725, 333.976 206.200, 340.540 198.500 C 351.678 185.434, 369.104 165.771, 371.558 163.500 C 372.152 162.950, 375.982 158.675, 380.069 154 C 384.156 149.325, 387.745 145.275, 388.044 145 C 388.342 144.725, 391.830 140.589, 395.794 135.808 C 399.759 131.028, 403.462 126.833, 404.023 126.486 C 404.585 126.139, 406.833 123.433, 409.019 120.474 C 411.206 117.514, 414.790 113.160, 416.985 110.796 C 419.179 108.433, 420.981 106.180, 420.988 105.788 C 420.994 105.396, 423.475 102.302, 426.500 98.912 C 432.183 92.542, 432.884 90.950, 430.750 89.248 C 429.826 88.511, 427.674 90.606, 422.500 97.279 M 199.670 92.604 C 197.859 95.062, 197.869 95.109, 200.646 97.294 C 204.030 99.956, 204.948 100.030, 206.380 97.759 C 207.274 96.342, 206.922 95.468, 204.489 93.069 L 201.500 90.122 199.670 92.604 M 432.655 97.829 C 430.579 100.122, 430.544 102.377, 432.557 104.048 C 433.868 105.136, 434.531 104.924, 436.747 102.708 C 439.319 100.136, 439.337 100.030, 437.534 98.038 C 435.271 95.537, 434.749 95.515, 432.655 97.829 M 192.933 100.125 C 191.971 101.923, 192.191 102.645, 194.360 104.814 C 196.874 107.328, 196.965 107.342, 198.983 105.516 L 201.041 103.653 198.334 100.826 C 195.089 97.439, 194.417 97.352, 192.933 100.125 M 208.482 101.020 C 206.671 103.021, 206.676 103.120, 208.681 105.126 C 210.476 106.921, 211.007 107.013, 212.868 105.850 C 215.543 104.180, 215.529 103.846, 212.669 101.159 L 210.338 98.969 208.482 101.020 M 439.009 105.490 C 436.998 107.631, 436.831 108.333, 437.814 110.490 C 439.267 113.680, 440.012 113.641, 443.302 110.207 C 445.800 107.599, 445.875 107.267, 444.432 105.207 C 442.472 102.408, 441.876 102.439, 439.009 105.490 M 186.955 107.083 C 186.066 108.745, 186.191 109.554, 187.575 111.083 C 189.767 113.504, 191.649 113.524, 192.926 111.138 C 193.704 109.684, 193.423 108.807, 191.647 107.138 C 188.824 104.486, 188.349 104.480, 186.955 107.083 M 425.607 106.882 C 424.194 108.443, 424.064 109.251, 424.955 110.917 C 426.350 113.523, 427.209 113.532, 429.532 110.965 C 431.324 108.985, 431.319 108.875, 429.374 106.929 C 427.391 104.947, 427.359 104.946, 425.607 106.882 M 201.630 108.857 C 200.293 110.333, 200.210 110.915, 201.225 111.701 C 203.982 113.836, 204.900 113.957, 206.467 112.390 C 207.971 110.886, 207.965 110.619, 206.392 108.881 C 204.274 106.540, 203.729 106.537, 201.630 108.857 M 215.647 108.838 C 214.090 110.558, 214.111 110.791, 215.973 112.476 C 217.678 114.018, 218.216 114.082, 219.731 112.921 C 220.704 112.176, 221.685 111.441, 221.911 111.289 C 222.457 110.921, 218.882 107, 218 107 C 217.620 107, 216.562 107.827, 215.647 108.838 M 445.495 113.600 C 443.232 116.042, 443.181 116.346, 444.658 118.600 C 446.626 121.605, 448.064 121.625, 450.826 118.686 C 453.476 115.864, 453.537 114.796, 451.171 112.655 C 448.758 110.471, 448.329 110.542, 445.495 113.600 M 195.459 114.429 C 193.523 115.867, 193.526 115.911, 195.675 118.089 C 197.732 120.175, 197.942 120.201, 199.571 118.571 C 201.201 116.942, 201.189 116.745, 199.356 114.911 C 197.627 113.183, 197.207 113.131, 195.459 114.429 M 431.200 114.200 C 429.558 115.842, 429.693 118.501, 431.494 119.995 C 432.722 121.014, 433.332 120.814, 434.914 118.868 C 436.673 116.704, 436.704 116.349, 435.265 114.750 C 433.403 112.681, 432.800 112.600, 431.200 114.200 M 208.583 115.645 C 208.228 116.571, 208.689 118.103, 209.638 119.153 C 211.217 120.898, 211.442 120.910, 213.170 119.346 C 214.895 117.785, 214.907 117.555, 213.353 115.838 C 211.291 113.559, 209.412 113.483, 208.583 115.645 M 223.625 115.510 C 221.542 117.058, 222.017 119.686, 224.555 120.659 C 225.435 120.997, 226.893 120.536, 227.796 119.633 C 229.317 118.112, 229.293 117.851, 227.468 116.054 C 225.746 114.358, 225.265 114.290, 223.625 115.510 M 418.655 115.829 C 416.546 118.159, 416.555 119.615, 418.683 120.432 C 419.712 120.827, 421.138 120.306, 422.351 119.093 C 424.005 117.440, 424.120 116.850, 423.045 115.555 C 421.384 113.553, 420.675 113.597, 418.655 115.829 M 178.429 120.750 C 178.785 122.263, 180.122 124.400, 181.401 125.500 C 182.680 126.600, 187.050 130.264, 191.113 133.643 C 195.176 137.022, 203.225 144.558, 209 150.391 C 221.752 163.271, 217.156 158.725, 244.739 185.740 C 279.966 220.240, 287 226.461, 287 223.115 C 287 222.628, 281.765 217.116, 275.367 210.865 C 268.969 204.614, 253.761 189.600, 241.571 177.500 C 207.088 143.273, 180.284 118, 178.465 118 C 178.090 118, 178.074 119.237, 178.429 120.750 M 201.905 121.615 C 200.755 123, 200.904 123.504, 202.950 125.161 C 205.082 126.887, 205.498 126.931, 206.851 125.577 C 208.205 124.224, 208.170 123.846, 206.528 122.031 C 204.308 119.578, 203.645 119.518, 201.905 121.615 M 438.058 122.438 C 435.820 124.821, 435.792 125.033, 437.395 127.480 C 438.755 129.556, 439.423 129.844, 440.966 129.018 C 443.903 127.446, 444.530 124.086, 442.302 121.858 C 440.426 119.982, 440.357 119.991, 438.058 122.438 M 230.619 122.524 C 228.599 124.543, 228.587 125.412, 230.555 127.045 C 231.850 128.120, 232.439 128.005, 234.090 126.355 C 236.041 124.404, 236.042 124.348, 234.154 122.640 C 232.388 121.041, 232.111 121.032, 230.619 122.524 M 424.604 123.155 C 423.518 124.705, 423.372 125.826, 424.083 127.155 C 425.335 129.494, 426.257 129.479, 428.425 127.083 C 429.809 125.554, 429.934 124.745, 429.045 123.083 C 427.626 120.433, 426.497 120.452, 424.604 123.155 M 216.525 122.959 C 216.199 123.487, 216.494 124.819, 217.182 125.919 C 218.337 127.769, 218.565 127.798, 220.212 126.308 C 221.564 125.085, 221.723 124.372, 220.874 123.348 C 219.571 121.778, 217.377 121.582, 216.525 122.959 M 412.083 123.845 C 410.822 126.201, 411.630 129, 413.572 129 C 414.319 129, 415.381 128.157, 415.933 127.126 C 416.701 125.690, 416.494 124.852, 415.047 123.543 C 413.259 121.925, 413.102 121.941, 412.083 123.845 M 210.058 129.430 C 209.106 130.577, 209.302 131.091, 211.043 132.023 C 213.589 133.386, 215.605 132.019, 214.664 129.567 C 213.913 127.610, 211.625 127.542, 210.058 129.430 M 223.759 129.430 C 222.120 130.632, 222.137 130.814, 224.040 132.537 C 225.838 134.163, 226.229 134.200, 227.562 132.866 C 228.896 131.533, 228.864 131.188, 227.281 129.759 C 225.808 128.431, 225.199 128.374, 223.759 129.430 M 236.973 130.051 C 236.142 131.604, 236.167 132.497, 237.074 133.589 C 238.131 134.863, 238.525 134.835, 240.143 133.370 C 242.503 131.235, 242.482 130.328, 240.042 129.022 C 238.454 128.173, 237.874 128.367, 236.973 130.051 M 430.575 130.917 C 429.191 132.446, 429.066 133.255, 429.955 134.917 C 431.358 137.538, 433.179 137.565, 435.500 135 C 437.247 133.070, 437.247 132.930, 435.500 131 C 433.259 128.524, 432.749 128.515, 430.575 130.917 M 405.494 132.007 C 403.773 133.908, 403.756 134.185, 405.267 135.695 C 406.638 137.066, 407.156 137.115, 408.498 136.002 C 410.223 134.570, 410.177 130.879, 408.427 130.304 C 407.837 130.110, 406.517 130.876, 405.494 132.007 M 417.285 131.915 C 416.324 133.454, 416.384 134.074, 417.595 135.079 C 418.815 136.091, 419.401 136.027, 420.687 134.742 C 422.418 133.011, 421.837 130, 419.772 130 C 419.062 130, 417.943 130.862, 417.285 131.915 M 217 135.500 C 216.007 136.697, 216.007 137.303, 217 138.500 C 218.593 140.420, 220.416 140.408, 222.026 138.469 C 223.077 137.203, 222.968 136.689, 221.398 135.501 C 218.981 133.671, 218.518 133.671, 217 135.500 M 243.693 135.482 C 241.650 136.976, 241.540 138.373, 243.348 139.874 C 244.376 140.727, 245.117 140.529, 246.464 139.040 C 247.991 137.352, 248.038 136.895, 246.809 135.666 C 245.663 134.520, 245.058 134.485, 243.693 135.482 M 230.380 136.452 C 229.797 137.971, 230.623 140.011, 231.809 139.985 C 232.189 139.976, 233.146 139.561, 233.936 139.061 C 235.126 138.308, 235.147 137.883, 234.063 136.576 C 232.431 134.610, 231.104 134.565, 230.380 136.452 M 423.468 139.035 C 421.674 141.017, 421.682 141.126, 423.759 143.203 C 425.540 144.985, 426.147 145.123, 427.445 144.045 C 429.300 142.506, 429.461 139.861, 427.800 138.200 C 426.166 136.566, 425.605 136.674, 423.468 139.035 M 399.139 139.332 C 398.322 140.317, 398.392 141.154, 399.409 142.544 C 400.568 144.130, 401.032 144.218, 402.371 143.107 C 403.565 142.116, 403.707 141.321, 402.944 139.895 C 401.749 137.662, 400.659 137.501, 399.139 139.332 M 411.200 139.200 C 409.608 140.792, 409.684 142.493, 411.410 143.925 C 413.359 145.543, 416.511 141.320, 414.849 139.318 C 413.496 137.688, 412.737 137.663, 411.200 139.200 M 224.110 142.367 C 222.397 144.431, 225.392 146.751, 227.302 144.840 C 228.877 143.266, 228.426 141, 226.539 141 C 225.827 141, 224.734 141.615, 224.110 142.367 M 236.666 142.427 C 235.904 144.414, 238.731 146.669, 240.175 145.225 C 241.556 143.844, 240.522 141, 238.638 141 C 237.855 141, 236.968 141.642, 236.666 142.427 M 249.214 142.186 C 248.299 143.101, 248.403 143.787, 249.669 145.186 C 250.571 146.184, 251.642 147, 252.048 147 C 253.439 147, 254.035 143.747, 252.895 142.373 C 251.498 140.691, 250.747 140.653, 249.214 142.186 M 392.975 145.530 C 391.974 146.737, 391.960 147.616, 392.908 149.697 L 394.110 152.335 396.145 150.299 C 397.922 148.523, 398.012 147.992, 396.850 146.132 C 395.267 143.596, 394.659 143.501, 392.975 145.530 M 405.147 146.323 C 403.961 147.752, 404.543 151, 405.985 151 C 406.408 151, 407.334 150.302, 408.042 149.450 C 409.099 148.176, 409.061 147.633, 407.828 146.400 C 406.534 145.105, 406.166 145.095, 405.147 146.323 M 417.003 146.496 C 415.975 147.736, 415.955 148.605, 416.908 150.697 L 418.110 153.335 420.291 151.153 C 421.985 149.460, 422.236 148.597, 421.415 147.296 C 419.926 144.936, 418.511 144.680, 417.003 146.496 M 230.215 148.241 C 228.742 150.016, 230.263 152.289, 232.620 151.835 C 234.920 151.392, 235.153 147.653, 232.908 147.221 C 232.032 147.052, 230.821 147.511, 230.215 148.241 M 242.974 148.531 C 241.923 149.798, 242.032 150.306, 243.602 151.470 C 245.222 152.671, 245.707 152.674, 246.914 151.489 C 248.073 150.351, 248.096 149.821, 247.042 148.550 C 245.426 146.604, 244.577 146.600, 242.974 148.531 M 255.667 148.667 C 254.367 149.966, 255.027 151.874, 256.991 152.497 C 259.899 153.420, 261.222 152.283, 259.968 149.939 C 258.931 148.002, 256.925 147.408, 255.667 148.667 M 386.619 152.524 C 384.651 154.492, 384.618 155.096, 386.348 157.462 C 387.802 159.450, 389.414 158.964, 390.962 156.070 C 391.692 154.707, 391.473 153.833, 390.087 152.578 C 388.383 151.036, 388.111 151.032, 386.619 152.524 M 236.551 154.125 C 234.619 156.029, 234.619 156.064, 236.614 158.058 L 238.626 160.071 240.500 158 C 242.333 155.975, 242.332 155.889, 240.437 154.067 C 238.547 152.249, 238.453 152.251, 236.551 154.125 M 399.011 153.487 C 397.530 155.271, 398.362 158, 400.385 158 C 402.086 158, 402.859 156.211, 402.221 153.750 C 401.665 151.608, 400.640 151.525, 399.011 153.487 M 410.768 153.704 C 409.245 155.386, 409.252 155.682, 410.859 157.813 C 412.524 160.020, 412.655 160.039, 414.232 158.296 C 415.755 156.614, 415.748 156.318, 414.141 154.187 C 412.476 151.980, 412.345 151.961, 410.768 153.704 M 249.473 155.044 C 248.679 156.329, 250.765 159, 252.563 159 C 254.836 159, 255.388 156.757, 253.462 155.348 C 251.245 153.728, 250.330 153.658, 249.473 155.044 M 262.030 155.464 C 260.939 156.779, 261.023 157.368, 262.545 159.050 C 264.182 160.859, 264.521 160.907, 265.901 159.527 C 267.282 158.147, 267.230 157.785, 265.386 155.942 C 263.540 154.095, 263.205 154.048, 262.030 155.464 M 379.647 160.838 C 378.093 162.555, 378.105 162.785, 379.830 164.346 C 381.560 165.912, 381.788 165.892, 383.476 164.027 C 384.949 162.399, 385.047 161.762, 384.016 160.519 C 382.384 158.552, 381.668 158.605, 379.647 160.838 M 392.691 160.789 C 391.301 162.325, 391.234 162.937, 392.293 164.386 C 393.495 166.030, 393.682 166.009, 395.468 164.035 C 397.155 162.171, 397.200 161.771, 395.866 160.438 C 394.533 159.104, 394.180 159.143, 392.691 160.789 M 404.074 160.862 C 402.771 163.297, 405.010 166.594, 407.355 165.694 C 409.278 164.956, 409.523 161.923, 407.800 160.200 C 406.135 158.535, 405.233 158.695, 404.074 160.862 M 242.958 161.550 C 241.896 162.831, 241.961 163.390, 243.336 164.764 C 244.877 166.305, 245.121 166.307, 246.637 164.792 C 248.454 162.974, 247.844 160, 245.654 160 C 244.879 160, 243.666 160.698, 242.958 161.550 M 256 161.500 C 255.007 162.697, 255.007 163.303, 256 164.500 C 258.593 167.624, 261.912 165.572, 260.011 162.021 C 258.722 159.612, 257.679 159.477, 256 161.500 M 268.205 162.253 C 267.472 163.136, 267.574 164.065, 268.551 165.401 C 269.689 166.957, 270.209 167.072, 271.448 166.043 C 272.574 165.109, 272.700 164.308, 271.944 162.895 C 270.763 160.689, 269.660 160.500, 268.205 162.253 M 249.679 167.802 C 248.083 169.566, 248.091 169.772, 249.812 171.330 C 251.415 172.781, 251.877 172.808, 253.570 171.550 C 255.470 170.137, 255.468 170.083, 253.437 168.022 C 251.424 165.981, 251.332 165.975, 249.679 167.802 M 373.514 167.985 C 372.061 169.590, 371.958 170.245, 372.967 171.460 C 373.892 172.575, 374.695 172.699, 376.105 171.944 C 378.324 170.756, 378.557 168.707, 376.652 167.126 C 375.624 166.273, 374.879 166.476, 373.514 167.985 M 398.200 167.200 C 396.625 168.775, 396.680 170.489, 398.348 171.874 C 399.371 172.723, 400.077 172.571, 401.272 171.246 C 402.577 169.800, 402.627 169.199, 401.563 167.750 C 400.041 165.675, 399.769 165.631, 398.200 167.200 M 262.695 168.137 C 261.268 168.946, 261.136 169.459, 262.067 170.581 C 263.471 172.273, 265.618 172.427, 266.559 170.904 C 267.704 169.052, 264.776 166.957, 262.695 168.137 M 273.951 168.559 C 273.021 169.680, 273.032 170.334, 274 171.500 C 276.289 174.258, 279.653 172.866, 278.426 169.668 C 277.578 167.459, 275.327 166.902, 273.951 168.559 M 386.011 168.487 C 384.689 170.079, 385.287 173, 386.933 173 C 388.296 173, 390.235 169.189, 389.487 167.979 C 388.629 166.591, 387.441 166.764, 386.011 168.487 M 256 174.500 C 255.006 175.698, 255.010 176.307, 256.021 177.525 C 257.151 178.887, 257.485 178.871, 259.140 177.373 C 260.549 176.098, 260.725 175.373, 259.874 174.348 C 258.433 172.612, 257.538 172.647, 256 174.500 M 268.759 174.430 C 267.105 175.643, 267.105 175.785, 268.759 177.277 C 270.196 178.574, 270.804 178.625, 272.241 177.570 C 273.895 176.357, 273.895 176.215, 272.241 174.723 C 270.804 173.426, 270.196 173.375, 268.759 174.430 M 367.053 174.436 C 366.168 175.502, 366.146 176.404, 366.966 177.936 C 368.323 180.471, 369.186 180.533, 370.643 178.201 C 371.487 176.848, 371.458 175.979, 370.523 174.701 C 369.009 172.630, 368.579 172.597, 367.053 174.436 M 379.743 174.987 C 377.827 177.224, 378.472 180.252, 380.769 179.799 C 383.423 179.276, 384.676 176.248, 382.952 174.523 C 381.599 173.170, 381.256 173.220, 379.743 174.987 M 392.200 174.200 C 390.700 175.700, 390.643 178.661, 392.096 179.559 C 393.860 180.649, 396.294 177.501, 395.535 175.112 C 394.773 172.709, 393.923 172.477, 392.200 174.200 M 280.357 175.513 C 280.037 176.345, 280.336 177.700, 281.020 178.524 C 282.116 179.844, 282.416 179.813, 283.549 178.264 C 284.451 177.030, 284.525 176.132, 283.795 175.253 C 282.400 173.572, 281.063 173.673, 280.357 175.513 M 261.958 180.550 C 260.896 181.831, 260.961 182.390, 262.336 183.764 C 263.877 185.305, 264.121 185.307, 265.637 183.792 C 267.454 181.974, 266.844 179, 264.654 179 C 263.879 179, 262.666 179.698, 261.958 180.550 M 275.042 180.450 C 274.013 181.689, 274.005 182.301, 275 183.500 C 275.685 184.325, 276.592 185, 277.015 185 C 278.549 185, 279.041 181.612, 277.701 180.272 C 276.537 179.109, 276.132 179.136, 275.042 180.450 M 285.979 180.525 C 284.889 181.838, 284.949 182.377, 286.336 183.764 C 287.830 185.259, 288.156 185.272, 289.531 183.897 C 290.906 182.523, 290.870 182.192, 289.175 180.658 C 287.462 179.108, 287.166 179.096, 285.979 180.525 M 360.067 181.874 C 359.290 183.327, 359.527 184.167, 361.122 185.611 C 363.130 187.428, 363.214 187.428, 364.552 185.599 C 365.530 184.261, 365.637 183.190, 364.926 181.862 C 363.647 179.471, 361.350 179.477, 360.067 181.874 M 384.619 182.134 C 383.299 184.018, 383.297 184.440, 384.606 185.749 C 385.915 187.058, 386.309 187.030, 387.987 185.511 C 389.547 184.100, 389.675 183.453, 388.703 181.896 C 387.186 179.467, 386.457 179.509, 384.619 182.134 M 372.986 182.517 C 371.886 183.842, 371.949 184.378, 373.372 185.800 C 374.864 187.292, 375.190 187.316, 376.035 186 C 378.157 182.694, 375.427 179.575, 372.986 182.517 M 268.647 186.838 C 267.094 188.553, 267.100 188.775, 268.742 190.181 C 270.314 191.528, 270.669 191.509, 272.098 189.996 C 273.379 188.639, 273.456 187.977, 272.488 186.652 C 270.968 184.573, 270.684 184.587, 268.647 186.838 M 280.590 186.627 C 279.975 188.229, 281.512 191, 283.015 191 C 284.433 191, 285.048 187.763, 283.895 186.373 C 282.389 184.559, 281.353 184.639, 280.590 186.627 M 291.978 186.526 C 290.841 187.897, 290.854 188.295, 292.064 189.061 C 293.961 190.261, 294.742 190.226, 295.559 188.904 C 295.932 188.301, 295.582 187.154, 294.782 186.354 C 293.510 185.082, 293.159 185.103, 291.978 186.526 M 353.984 188.519 C 352.953 189.762, 353.051 190.399, 354.524 192.027 C 356.212 193.892, 356.440 193.912, 358.170 192.346 C 359.895 190.785, 359.907 190.555, 358.353 188.838 C 356.332 186.605, 355.616 186.552, 353.984 188.519 M 366.644 188.841 C 365.094 190.554, 365.105 190.785, 366.806 192.324 C 368.211 193.596, 368.899 193.701, 369.814 192.786 C 371.375 191.225, 371.316 189.507, 369.652 188.126 C 368.627 187.276, 367.905 187.447, 366.644 188.841 M 378.585 188.906 C 376.732 190.953, 377.158 193, 379.437 193 C 380.162 193, 381.334 192.302, 382.042 191.450 C 383.099 190.176, 383.064 189.635, 381.847 188.419 C 380.539 187.111, 380.158 187.168, 378.585 188.906 M 275.200 192.200 C 273.523 193.877, 273.705 195.673, 275.627 196.410 C 278.238 197.412, 280.163 195.233, 278.715 192.915 C 277.318 190.678, 276.823 190.577, 275.200 192.200 M 297.441 192.096 C 297.068 192.699, 297.418 193.846, 298.218 194.646 C 299.490 195.918, 299.828 195.912, 300.922 194.594 C 301.610 193.765, 301.882 192.618, 301.527 192.044 C 300.682 190.676, 298.299 190.707, 297.441 192.096 M 286 193.393 C 286 194.901, 288.429 196.238, 289.402 195.264 C 290.719 193.948, 289.883 192, 288 192 C 286.900 192, 286 192.627, 286 193.393 M 348.667 194.667 C 347.610 195.724, 347.890 198.490, 349.186 199.786 C 350.101 200.701, 350.789 200.596, 352.194 199.324 C 353.896 197.784, 353.907 197.555, 352.353 195.838 C 350.575 193.873, 349.729 193.604, 348.667 194.667 M 361.052 195.437 C 359.500 197.307, 360.355 200, 362.500 200 C 364.729 200, 365.541 197.112, 363.801 195.372 C 362.504 194.075, 362.176 194.083, 361.052 195.437 M 371.611 195.572 C 371.279 196.437, 371.501 198.067, 372.104 199.194 L 373.201 201.244 375.268 199.176 C 376.994 197.451, 377.122 196.852, 376.045 195.555 C 374.388 193.558, 372.380 193.566, 371.611 195.572 M 292.042 197.450 C 290.993 198.713, 290.993 199.287, 292.042 200.550 C 293.204 201.950, 293.478 201.950, 294.878 200.550 C 296.279 199.150, 296.279 198.850, 294.878 197.450 C 293.478 196.050, 293.204 196.050, 292.042 197.450 M 281.036 198.456 C 280.372 199.257, 280.119 200.383, 280.475 200.959 C 281.470 202.570, 285.048 200.289, 284.356 198.485 C 283.636 196.609, 282.577 196.600, 281.036 198.456 M 343.501 201.998 C 343.162 202.547, 343.546 203.941, 344.355 205.096 C 345.797 207.155, 345.845 207.158, 346.866 205.251 C 348.353 202.473, 345.132 199.359, 343.501 201.998 M 355 202.500 C 354.005 203.699, 354.013 204.311, 355.042 205.550 C 356.132 206.864, 356.537 206.891, 357.701 205.728 C 359.041 204.388, 358.549 201, 357.015 201 C 356.592 201, 355.685 201.675, 355 202.500 M 365.958 202.550 C 364.894 203.833, 364.969 204.394, 366.397 205.800 C 368.021 207.401, 368.205 207.388, 369.544 205.582 C 370.598 204.161, 370.680 203.319, 369.861 202.332 C 368.425 200.602, 367.534 200.651, 365.958 202.550 M 286 204.941 C 286 207.437, 287.964 208.666, 289.096 206.878 C 290.555 204.576, 290.109 203, 288 203 C 286.687 203, 286 203.667, 286 204.941 M 337.306 208.645 C 336.922 209.646, 337.387 210.810, 338.495 211.620 C 340.047 212.755, 340.501 212.697, 341.575 211.228 C 342.458 210.021, 342.524 209.131, 341.795 208.253 C 340.336 206.495, 338.055 206.694, 337.306 208.645 M 349.430 208.322 C 348.650 210.355, 349.538 213, 351 213 C 352.883 213, 353.323 209.894, 351.673 208.245 C 350.207 206.778, 350.020 206.785, 349.430 208.322 M 360.399 208.750 C 358.233 212.253, 361.380 214.656, 364 211.500 C 364.993 210.303, 364.993 209.697, 364 208.500 C 362.393 206.563, 361.722 206.610, 360.399 208.750 M 299 212.846 C 296.525 213.729, 294.315 214.572, 294.089 214.720 C 293.404 215.168, 297.225 219.071, 302.330 223.137 C 306.136 226.169, 307.544 226.779, 308.969 226.017 C 310.729 225.075, 318.455 215.061, 317.819 214.547 C 316.721 213.661, 307.284 211.021, 305.572 211.120 C 304.432 211.186, 301.475 211.963, 299 212.846 M 344.042 214.450 C 342.993 215.713, 342.993 216.287, 344.042 217.550 C 345.204 218.950, 345.478 218.950, 346.878 217.550 C 348.279 216.150, 348.279 215.850, 346.878 214.450 C 345.478 213.050, 345.204 213.050, 344.042 214.450 M 355.247 215.153 C 354.405 215.995, 354.387 216.854, 355.178 218.333 C 356.207 220.256, 356.330 220.269, 357.563 218.583 C 358.815 216.870, 358.521 214, 357.093 214 C 356.712 214, 355.881 214.519, 355.247 215.153 M 322.538 225.169 C 315.206 233.324, 315.198 232.820, 322.792 240.441 L 329.500 247.171 334.787 246.654 L 340.073 246.137 346.474 252.125 L 352.875 258.112 345.988 244.306 C 338.718 229.729, 335.137 224.612, 330.204 221.749 L 327.187 219.998 322.538 225.169 M 349.667 220.667 C 348.617 221.717, 348.888 224.813, 350.096 225.559 C 350.699 225.932, 351.898 225.531, 352.760 224.669 C 354.052 223.377, 354.102 222.827, 353.042 221.550 C 351.648 219.870, 350.709 219.625, 349.667 220.667 M 276.908 226.238 C 276.134 227.013, 274.411 229.976, 273.080 232.822 C 270.224 238.929, 270.540 239.905, 278.088 248.246 L 282.842 253.500 290.491 246 C 300.473 236.213, 300.731 235.699, 297.826 231.422 C 295.246 227.623, 293.400 226.733, 287.500 226.442 C 285.300 226.334, 282.334 225.926, 280.908 225.536 C 279.197 225.068, 277.837 225.307, 276.908 226.238 M 264 242.500 C 263.006 243.698, 263.010 244.307, 264.021 245.525 C 265.151 246.887, 265.485 246.871, 267.140 245.373 C 268.549 244.098, 268.725 243.373, 267.874 242.348 C 266.433 240.612, 265.538 240.647, 264 242.500 M 303.361 247.250 C 291.588 259.441, 291.946 260, 311.548 260 C 321.533 260, 327.117 259.620, 327.555 258.910 C 328.667 257.112, 312.079 242.026, 308.966 242.004 C 308.672 242.002, 306.150 244.363, 303.361 247.250 M 258.332 248.578 C 257.999 249.445, 258.447 250.875, 259.327 251.755 C 260.793 253.222, 260.980 253.215, 261.570 251.678 C 262.350 249.645, 261.462 247, 260 247 C 259.415 247, 258.665 247.710, 258.332 248.578 M 269.700 249.341 C 269.417 250.078, 269.577 251.316, 270.056 252.091 C 270.792 253.280, 271.186 253.242, 272.582 251.846 C 274.337 250.092, 273.775 248, 271.548 248 C 270.814 248, 269.982 248.603, 269.700 249.341 M 334.546 249.926 C 334.231 250.435, 336.507 253.023, 339.604 255.676 C 342.701 258.329, 361.945 277.138, 382.367 297.472 C 420.678 335.618, 442.901 357, 444.235 357 C 447.375 357, 439.733 348.707, 401.134 310.229 C 340.521 249.806, 336.738 246.379, 334.546 249.926 M 253.053 254.436 C 252.130 255.548, 252.133 256.381, 253.068 258.126 L 254.274 260.380 256.119 258.101 C 257.708 256.139, 257.768 255.626, 256.554 254.411 C 254.798 252.655, 254.529 252.657, 253.053 254.436 M 263.976 254.528 C 262.890 255.837, 262.949 256.378, 264.329 257.757 C 266.773 260.202, 268.789 257.964, 266.756 255.062 C 265.433 253.173, 265.147 253.118, 263.976 254.528 M 274.958 255.550 C 273.896 256.831, 273.961 257.390, 275.336 258.764 C 276.888 260.317, 277.112 260.317, 278.664 258.764 C 280.039 257.390, 280.104 256.831, 279.042 255.550 C 278.334 254.698, 277.415 254, 277 254 C 276.585 254, 275.666 254.698, 274.958 255.550 M 247 260.999 C 245.512 263.781, 247.474 266.682, 249.633 264.890 C 251.397 263.426, 251.372 261.554, 249.570 260.058 C 248.424 259.107, 247.913 259.295, 247 260.999 M 257.937 261.576 C 256.853 262.883, 256.874 263.308, 258.064 264.061 C 260.131 265.369, 261.707 265.206, 262.315 263.622 C 262.825 262.291, 261.312 260, 259.922 260 C 259.550 260, 258.656 260.709, 257.937 261.576 M 269.590 261.627 C 268.975 263.229, 270.512 266, 272.015 266 C 273.568 266, 273.953 262.811, 272.569 261.426 C 270.750 259.608, 270.354 259.634, 269.590 261.627 M 281.419 271.214 C 275.413 277.421, 266.456 287.450, 261.513 293.500 C 256.571 299.550, 252.071 304.989, 251.513 305.586 C 239.687 318.264, 222.108 337.894, 218.456 342.500 C 215.839 345.800, 210.432 351.875, 206.440 356 C 198.317 364.393, 188.757 376.090, 189.452 376.786 C 191.076 378.410, 195.393 375.157, 200.347 368.574 C 206.891 359.879, 218.564 346.626, 232.108 332.512 C 249.783 314.095, 255.761 307.559, 263.155 298.572 C 267.195 293.662, 273.160 286.912, 276.412 283.572 C 283.071 276.732, 291.477 266.846, 292.909 264.169 C 293.433 263.192, 293.518 261.838, 293.099 261.160 C 292.585 260.328, 288.800 263.586, 281.419 271.214 M 329.714 263.267 C 328.304 264.339, 328.276 264.745, 329.498 266.375 C 331.037 268.428, 334 267.953, 334 265.654 C 334 263.227, 331.556 261.866, 329.714 263.267 M 241.200 267.200 C 239.537 268.863, 239.700 270.948, 241.548 271.657 C 243.641 272.460, 246.217 268.966, 244.795 267.253 C 243.496 265.688, 242.723 265.677, 241.200 267.200 M 252.599 267.551 C 251.031 268.698, 250.923 269.202, 251.974 270.469 C 253.631 272.466, 254.269 272.400, 255.715 270.085 C 257.409 267.372, 255.248 265.614, 252.599 267.551 M 294.263 268.769 C 293.033 270.271, 292.021 272.729, 292.013 274.231 C 292.006 275.734, 291.545 280.009, 290.990 283.731 C 290.074 289.866, 288.167 311.056, 286.016 339 C 285.572 344.775, 284.880 353.367, 284.479 358.093 L 283.750 366.687 296.625 367.254 C 303.706 367.566, 315.301 367.568, 322.392 367.259 L 335.284 366.697 334.583 356.598 C 333.876 346.413, 333.400 341.199, 330.608 313.046 C 329.764 304.546, 329.298 297.369, 329.570 297.096 C 329.843 296.824, 325.504 292.023, 319.929 286.429 C 308.613 275.074, 308.635 275.161, 315.497 269.137 L 319.070 266 307.785 266.019 C 296.716 266.038, 296.457 266.091, 294.263 268.769 M 264.250 267.662 C 262.535 268.354, 262.681 270.491, 264.550 272.042 C 265.829 273.103, 266.383 273.046, 267.714 271.714 C 269.046 270.383, 269.103 269.829, 268.042 268.550 C 266.696 266.928, 266.299 266.835, 264.250 267.662 M 323.250 267.662 C 321.631 268.316, 321.648 270.463, 323.284 271.820 C 325.419 273.593, 327.421 271.656, 326.068 269.127 C 325.442 267.957, 324.833 267.036, 324.715 267.079 C 324.597 267.122, 323.938 267.385, 323.250 267.662 M 335.010 270.488 C 334.009 271.694, 334.083 272.095, 335.400 272.600 C 337.229 273.302, 340.274 271.252, 339.430 269.887 C 338.591 268.530, 336.386 268.830, 335.010 270.488 M 234.728 273.754 C 232.614 276.097, 234.640 279.341, 237.292 277.857 C 239.343 276.709, 239.499 274.659, 237.652 273.126 C 236.629 272.277, 235.923 272.429, 234.728 273.754 M 258.225 274.011 C 257.235 275.597, 257.237 276.406, 258.234 278.003 C 259.641 280.255, 260.860 280.168, 262.415 277.704 C 263.229 276.413, 263.012 275.568, 261.470 274.025 C 259.472 272.027, 259.464 272.027, 258.225 274.011 M 316.260 273.955 C 314.630 276.566, 316.884 278.536, 319.398 276.698 C 321.037 275.500, 321.031 275.338, 319.282 273.755 C 317.546 272.184, 317.358 272.197, 316.260 273.955 M 246 274.500 C 245.006 275.698, 245.010 276.307, 246.021 277.525 C 247.151 278.887, 247.485 278.871, 249.140 277.373 C 250.549 276.098, 250.725 275.373, 249.874 274.348 C 248.433 272.612, 247.538 272.647, 246 274.500 M 328.446 275.087 C 328.077 275.685, 328.256 276.656, 328.845 277.245 C 330.093 278.493, 333.339 276.357, 332.430 274.887 C 331.669 273.655, 329.256 273.777, 328.446 275.087 M 341.146 275.324 C 340.237 276.419, 340.311 277.013, 341.475 277.979 C 343.432 279.603, 346.242 278.493, 345.812 276.265 C 345.384 274.039, 342.667 273.492, 341.146 275.324 M 276.738 288.311 C 270.958 294.578, 265.902 300.785, 265.504 302.103 C 265.105 303.421, 263.535 305.850, 262.014 307.500 C 259.299 310.445, 258.888 311.895, 257.053 325 C 256.351 330.012, 253.485 347.058, 250.991 361.060 C 249.367 370.174, 249.280 370, 255.451 370 C 261.197 370, 270.954 368.293, 272.289 367.054 C 272.723 366.651, 271.958 362.795, 270.589 358.484 C 269.220 354.174, 268.334 350.269, 268.619 349.807 C 269.580 348.252, 270.939 350.057, 271.996 354.292 C 275.008 366.359, 275.264 367, 277.063 367 C 278.054 367, 279.097 366.212, 279.381 365.250 C 280.457 361.601, 282 347.601, 282 341.489 C 282 337.988, 282.862 328.008, 283.916 319.312 C 286.316 299.499, 288.253 277.920, 287.682 277.349 C 287.444 277.111, 282.519 282.043, 276.738 288.311 M 227.669 280.814 C 226.403 282.213, 226.299 282.899, 227.214 283.814 C 228.932 285.532, 230.784 285.271, 231.918 283.153 C 232.598 281.883, 232.547 280.947, 231.753 280.153 C 230.194 278.594, 229.589 278.692, 227.669 280.814 M 240.052 280.437 C 238.500 282.307, 239.355 285, 241.500 285 C 243.729 285, 244.541 282.112, 242.801 280.372 C 241.504 279.075, 241.176 279.083, 240.052 280.437 M 252.211 280.189 C 250.503 281.897, 250.707 284.950, 252.578 285.668 C 253.445 286.001, 254.893 285.535, 255.796 284.633 C 257.317 283.112, 257.290 282.846, 255.429 280.985 C 253.858 279.414, 253.159 279.241, 252.211 280.189 M 321.203 279.840 C 320.164 280.509, 320.212 280.931, 321.440 281.950 C 323.235 283.440, 326.356 282.570, 325.750 280.749 C 325.232 279.193, 322.921 278.731, 321.203 279.840 M 333.910 280.608 C 332.776 281.975, 332.863 282.427, 334.492 283.618 C 336.142 284.824, 336.612 284.816, 337.869 283.560 C 339.067 282.362, 339.098 281.823, 338.042 280.550 C 336.413 278.587, 335.578 278.599, 333.910 280.608 M 347.426 281.082 C 345.582 283.119, 345.581 283.220, 347.373 284.531 C 348.818 285.588, 349.629 285.624, 351.109 284.700 C 353.459 283.232, 353.466 282.731, 351.162 280.647 C 349.441 279.089, 349.205 279.116, 347.426 281.082 M 327.614 285.293 C 325.956 286.505, 325.960 286.653, 327.684 288.209 C 329.188 289.566, 329.799 289.628, 331.241 288.570 C 332.891 287.360, 332.887 287.208, 331.171 285.655 C 329.671 284.297, 329.061 284.235, 327.614 285.293 M 340.352 286.524 C 339.563 288.581, 341.393 290.447, 343.433 289.664 C 345.586 288.838, 345.397 287.283, 342.985 285.992 C 341.386 285.136, 340.843 285.246, 340.352 286.524 M 221.040 287.452 C 219.826 288.915, 220.468 293, 221.912 293 C 222.340 293, 223.497 292.108, 224.483 291.019 C 225.950 289.397, 226.047 288.762, 225.016 287.519 C 223.441 285.622, 222.571 285.607, 221.040 287.452 M 233.056 287.895 C 231.537 290.733, 234.450 292.978, 236.714 290.714 C 238.046 289.383, 238.103 288.829, 237.042 287.550 C 235.343 285.503, 234.287 285.594, 233.056 287.895 M 353.454 287.410 C 351.560 288.795, 351.560 288.856, 353.426 290.918 C 355.192 292.869, 355.451 292.902, 357.130 291.382 C 358.504 290.138, 358.696 289.301, 357.933 287.874 C 356.731 285.629, 355.994 285.553, 353.454 287.410 M 245.247 288.153 C 244.078 289.322, 245.255 293.017, 246.785 292.985 C 248.831 292.941, 250.160 291.079, 249.540 289.125 C 248.795 286.779, 247.022 286.378, 245.247 288.153 M 333.226 291.839 C 332.246 292.461, 332.386 293.039, 333.833 294.349 C 335.484 295.843, 335.863 295.870, 336.943 294.569 C 339.103 291.967, 336.286 289.897, 333.226 291.839 M 346.064 292.939 C 344.874 293.692, 344.853 294.117, 345.937 295.424 C 347.437 297.232, 349.585 297.481, 350.527 295.956 C 351.159 294.933, 349.364 291.985, 348.128 292.015 C 347.782 292.024, 346.854 292.439, 346.064 292.939 M 214.081 294.403 C 212.248 296.611, 214.521 300.642, 216.618 298.902 C 218.259 297.540, 218.116 293.859, 216.400 293.295 C 215.795 293.096, 214.751 293.595, 214.081 294.403 M 227.200 294.200 C 225.565 295.835, 225.682 299, 227.378 299 C 229.398 299, 231.130 296.502, 230.410 294.627 C 229.667 292.690, 228.822 292.578, 227.200 294.200 M 239.213 294.188 C 237.572 295.828, 237.688 297.496, 239.550 299.042 C 241.768 300.882, 244.974 297.767, 243.412 295.291 C 242.007 293.064, 240.684 292.716, 239.213 294.188 M 360.036 294.456 C 358.517 296.287, 359.510 298, 362.090 298 C 364.525 298, 365.798 295.119, 363.896 293.914 C 361.976 292.699, 361.431 292.776, 360.036 294.456 M 339.131 298.342 C 337.756 299.999, 338.647 301, 341.500 301 C 342.692 301, 343.963 300.704, 344.325 300.342 C 345.192 299.474, 343.101 297, 341.500 297 C 340.810 297, 339.744 297.604, 339.131 298.342 M 353.250 298.703 C 351.598 299.316, 351.659 301.472, 353.367 302.890 C 355.461 304.627, 357.905 301.442, 355.914 299.570 C 355.136 298.838, 353.938 298.448, 353.250 298.703 M 207.807 300.671 C 206.276 302.372, 206.286 302.655, 207.960 304.712 C 209.693 306.843, 209.819 306.857, 211.405 305.105 C 212.936 303.413, 212.926 303.130, 211.253 301.064 C 209.516 298.919, 209.396 298.905, 207.807 300.671 M 366.750 300.392 C 364.487 302.110, 364.530 303.678, 366.874 304.933 C 368.306 305.699, 369.143 305.499, 370.422 304.087 C 371.964 302.383, 371.968 302.111, 370.476 300.619 C 368.572 298.715, 368.930 298.737, 366.750 300.392 M 220.257 301.960 C 219.058 303.879, 219.489 307, 220.952 307 C 221.358 307, 222.497 306.108, 223.483 305.019 C 224.950 303.397, 225.047 302.762, 224.016 301.519 C 222.363 299.527, 221.730 299.602, 220.257 301.960 M 232.647 301.496 C 230.612 303.531, 230.606 303.908, 232.581 306.090 C 234.082 307.748, 234.266 307.734, 236.192 305.808 C 238.210 303.790, 238.210 303.766, 236.258 301.813 C 234.434 299.990, 234.176 299.967, 232.647 301.496 M 333.523 305 C 335.409 321.453, 336.012 327.912, 336.983 342.097 C 337.571 350.675, 338.388 359.663, 338.799 362.071 L 339.547 366.448 348.023 367.580 C 352.685 368.202, 358.900 369.229, 361.834 369.863 C 364.767 370.496, 367.631 370.728, 368.198 370.378 C 368.826 369.989, 368.957 368.132, 368.532 365.620 C 368.149 363.354, 367.484 359.250, 367.055 356.500 C 366.625 353.750, 365.746 348.125, 365.100 344 C 364.455 339.875, 363.692 335.416, 363.405 334.092 C 363.117 332.767, 358.746 327.336, 353.691 322.023 C 348.636 316.710, 341.888 309.468, 338.696 305.931 L 332.892 299.500 333.523 305 M 346.360 304.351 C 344.014 305.655, 344.320 308.008, 346.833 307.985 C 349.829 307.957, 350.968 306.677, 349.628 304.844 C 348.657 303.516, 348.030 303.422, 346.360 304.351 M 358.685 305.856 C 356.972 306.532, 356.987 306.678, 358.958 308.462 C 361.311 310.591, 363.497 309.459, 362.426 306.667 C 361.730 304.854, 361.405 304.784, 358.685 305.856 M 201.065 307.422 C 200.154 308.519, 200.181 309.317, 201.183 310.922 C 202.718 313.379, 203.351 313.487, 204.947 311.564 C 205.832 310.498, 205.854 309.596, 205.034 308.064 C 203.736 305.638, 202.686 305.468, 201.065 307.422 M 373.479 307.392 C 371.862 308.574, 371.776 309.025, 372.910 310.392 C 375.462 313.466, 379.757 311.284, 377.918 307.847 C 376.734 305.634, 375.987 305.558, 373.479 307.392 M 214.052 308.437 C 212.545 310.253, 213.333 313, 215.362 313 C 217.424 313, 218.308 309.879, 216.701 308.272 C 215.537 307.109, 215.134 307.134, 214.052 308.437 M 225.468 309.035 C 223.676 311.015, 223.681 311.125, 225.626 313.071 C 227.609 315.053, 227.641 315.054, 229.393 313.118 C 230.806 311.557, 230.936 310.749, 230.045 309.083 C 228.650 306.477, 227.791 306.468, 225.468 309.035 M 352.336 311.567 C 351.502 313.739, 353.618 315.782, 355.133 314.267 C 356.413 312.987, 355.620 310, 354 310 C 353.415 310, 352.667 310.705, 352.336 311.567 M 365.110 313.367 C 363.535 315.266, 366.196 317.390, 369.025 316.492 C 371.046 315.851, 371.065 315.729, 369.418 313.909 C 367.364 311.640, 366.621 311.547, 365.110 313.367 M 194.629 314.857 C 193.052 316.600, 193.063 316.856, 194.809 319.012 L 196.669 321.310 198.287 319 C 199.464 317.320, 199.636 316.188, 198.917 314.845 C 197.672 312.519, 196.743 312.521, 194.629 314.857 M 379.479 314.392 C 377.862 315.574, 377.776 316.025, 378.910 317.392 C 380.485 319.289, 383.122 319.478, 384.786 317.814 C 385.701 316.899, 385.597 316.213, 384.331 314.814 C 382.359 312.634, 381.933 312.597, 379.479 314.392 M 208.086 315.397 C 206.738 317.020, 207.231 320, 208.846 320 C 210.899 320, 211.991 317.369, 210.680 315.578 C 209.516 313.985, 209.272 313.968, 208.086 315.397 M 219.017 315.480 C 217.926 316.794, 217.926 317.493, 219.018 319.534 C 220.632 322.548, 221.148 322.594, 222.850 319.868 C 224.006 318.018, 223.928 317.483, 222.258 315.814 C 220.514 314.070, 220.213 314.039, 219.017 315.480 M 357.371 318.474 C 357.060 319.285, 357.557 320.699, 358.474 321.617 C 360.001 323.143, 360.279 323.150, 361.736 321.693 C 363.049 320.380, 363.102 319.828, 362.042 318.550 C 360.416 316.591, 358.109 316.554, 357.371 318.474 M 371.476 320.039 C 370.466 321.674, 373.511 324.402, 375.496 323.640 C 376.405 323.291, 376.997 322.217, 376.814 321.253 C 376.427 319.223, 372.528 318.336, 371.476 320.039 M 187.607 321.882 C 186.194 323.443, 186.064 324.251, 186.955 325.917 C 188.383 328.584, 190.165 328.567, 191.850 325.868 C 193.005 324.020, 192.929 323.484, 191.278 321.833 C 189.406 319.962, 189.344 319.962, 187.607 321.882 M 386.545 321.542 C 384.760 322.892, 384.728 323.157, 386.179 324.607 C 387.446 325.875, 388.196 325.965, 389.896 325.056 C 391.629 324.128, 391.830 323.552, 390.978 321.958 C 389.736 319.638, 389.137 319.582, 386.545 321.542 M 200.989 323.520 C 199.085 327.078, 201.090 329.134, 203.944 326.551 C 205.482 325.159, 205.707 324.321, 204.933 322.874 C 203.583 320.353, 202.598 320.514, 200.989 323.520 M 213.250 322.150 C 211.573 323.827, 211.675 325.485, 213.550 327.042 C 214.824 328.099, 215.367 328.062, 216.596 326.832 C 217.925 325.504, 217.891 325.087, 216.296 323.118 C 214.859 321.343, 214.250 321.150, 213.250 322.150 M 364.224 325.176 C 362.903 326.497, 364.342 329, 366.422 329 C 368.238 329, 369.904 326.913, 369.315 325.378 C 368.668 323.691, 365.822 323.578, 364.224 325.176 M 378.979 326.525 C 377.889 327.838, 377.949 328.377, 379.336 329.764 C 380.830 331.259, 381.156 331.272, 382.531 329.897 C 383.906 328.523, 383.870 328.192, 382.175 326.658 C 380.462 325.108, 380.166 325.096, 378.979 326.525 M 180.493 329.008 C 178.998 330.660, 178.881 331.442, 179.820 333.504 C 181.096 336.304, 183.155 336.723, 184.960 334.548 C 186.295 332.940, 185.634 329.771, 183.613 328.094 C 182.635 327.282, 181.846 327.513, 180.493 329.008 M 393.036 328.456 C 390.889 331.043, 393.733 333.091, 396.784 331.155 C 398.310 330.187, 397.337 327, 395.515 327 C 394.817 327, 393.701 327.655, 393.036 328.456 M 206.652 329.832 C 204.693 331.997, 204.582 333.182, 206.186 334.786 C 207.101 335.701, 207.787 335.597, 209.186 334.331 C 211.343 332.380, 211.497 330.657, 209.652 329.126 C 208.627 328.276, 207.907 328.445, 206.652 329.832 M 194.040 330.452 C 192.446 332.373, 193.098 335.395, 195.194 335.799 C 197.180 336.181, 199.245 332.803, 198.389 330.572 C 197.634 328.604, 195.620 328.548, 194.040 330.452 M 372.053 331.436 C 371.148 332.526, 371.138 333.390, 372.010 335.019 C 373.109 337.071, 373.244 337.089, 375.088 335.421 C 376.892 333.788, 376.909 333.557, 375.353 331.838 C 373.359 329.634, 373.531 329.655, 372.053 331.436 M 385.524 333.359 C 383.685 334.703, 383.687 334.762, 385.624 335.799 C 386.831 336.445, 388.174 336.510, 389.054 335.966 C 390.305 335.193, 390.292 334.864, 388.955 333.526 C 387.629 332.200, 387.141 332.176, 385.524 333.359 M 399 334.500 C 397.435 336.386, 399.267 339, 402.154 339 C 404.867 339, 405.627 336.189, 403.375 334.484 C 400.983 332.672, 400.516 332.673, 399 334.500 M 173.097 337.396 C 170.797 339.845, 170.776 340.009, 172.446 342.557 L 174.170 345.189 176.585 342.920 C 179.470 340.210, 179.510 339.851, 177.237 337.044 L 175.474 334.867 173.097 337.396 M 199.728 337.754 C 198.369 339.260, 198.344 339.761, 199.545 341.398 C 200.697 342.968, 201.202 343.077, 202.469 342.026 C 204.359 340.457, 204.428 338.600, 202.652 337.126 C 201.629 336.277, 200.923 336.429, 199.728 337.754 M 186.629 338.857 C 185.052 340.600, 185.062 340.854, 186.781 342.977 L 188.613 345.240 190.373 342.553 C 191.758 340.440, 191.880 339.560, 190.944 338.433 C 189.383 336.552, 188.650 336.624, 186.629 338.857 M 377.637 338.276 C 376.543 339.076, 376.138 340.196, 376.553 341.276 C 377.380 343.432, 378.828 343.466, 381.127 341.385 C 382.648 340.009, 382.707 339.564, 381.528 338.385 C 379.837 336.694, 379.802 336.693, 377.637 338.276 M 391.909 339.064 C 390.850 339.725, 390.766 340.370, 391.571 341.662 C 392.893 343.782, 394.112 344.214, 395.784 343.154 C 397.242 342.230, 396.483 339.399, 394.582 338.670 C 393.887 338.403, 392.684 338.581, 391.909 339.064 M 406.441 342.096 C 406.068 342.699, 406.492 343.920, 407.382 344.810 C 408.873 346.301, 409.127 346.301, 410.618 344.810 C 412.508 342.920, 411.693 341, 409 341 C 407.965 341, 406.813 341.493, 406.441 342.096 M 165.344 345.228 C 161.982 348.960, 161.779 349.904, 163.789 352.458 L 165.707 354.897 168.781 351.699 L 171.855 348.500 169.622 345.728 L 167.390 342.956 165.344 345.228 M 179.609 345.880 C 178.121 347.524, 178.057 348.118, 179.172 349.904 C 180.797 352.506, 181.229 352.510, 183.553 349.941 C 184.948 348.400, 185.157 347.473, 184.387 346.251 C 182.859 343.829, 181.556 343.728, 179.609 345.880 M 192.718 346.308 C 190.724 349.351, 192.201 352.498, 194.936 351.034 C 197.378 349.727, 198.299 347.065, 196.895 345.373 C 195.305 343.458, 194.461 343.647, 192.718 346.308 M 382.958 345.550 C 381.896 346.830, 381.957 347.386, 383.306 348.735 C 384.706 350.135, 385.294 350.181, 387.398 349.055 C 389.478 347.941, 389.676 347.453, 388.687 345.870 C 387.267 343.597, 384.699 343.453, 382.958 345.550 M 398.980 346.524 C 397.151 348.728, 400.207 351.990, 402.654 350.447 C 404.907 349.025, 404.840 347.970, 402.394 346.346 C 400.566 345.132, 400.116 345.155, 398.980 346.524 M 413.638 348.276 C 412.007 349.468, 412.047 349.696, 414.259 351.773 C 416.354 353.742, 416.844 353.835, 418.549 352.588 C 420.437 351.207, 420.438 351.141, 418.582 349.090 C 416.369 346.645, 415.960 346.578, 413.638 348.276 M 390.541 352.545 C 388.597 354.015, 388.597 354.041, 390.569 356.013 C 392.400 357.845, 392.729 357.878, 394.781 356.441 C 396.578 355.182, 396.807 354.508, 395.968 352.941 C 394.736 350.639, 393.209 350.527, 390.541 352.545 M 171.771 354.963 C 169.053 357.819, 169.049 357.839, 170.962 360.165 L 172.883 362.500 175.631 359.788 C 178.153 357.298, 178.267 356.868, 177.020 354.538 C 175.343 351.404, 175.144 351.420, 171.771 354.963 M 185.727 354.293 C 184.433 356.269, 184.419 356.852, 185.625 358.502 C 187 360.382, 187.066 360.378, 189.114 358.331 C 190.840 356.604, 191.005 355.877, 190.065 354.122 C 188.611 351.404, 187.594 351.444, 185.727 354.293 M 406.040 353.954 C 404.790 354.745, 404.848 355.175, 406.445 356.939 C 408.650 359.375, 408.897 359.398, 411.500 357.406 C 413.476 355.894, 413.477 355.859, 411.559 354.438 C 409.314 352.775, 408.076 352.666, 406.040 353.954 M 421.541 355.575 C 419.602 357.012, 419.603 357.047, 421.669 359.114 C 423.420 360.864, 424.108 361.012, 425.939 360.033 C 428.421 358.704, 428.266 357.245, 425.445 355.397 C 423.847 354.351, 423.151 354.382, 421.541 355.575 M 397.454 359.410 C 395.563 360.793, 395.562 360.858, 397.418 362.910 C 399.631 365.355, 401.294 365.556, 402.935 363.578 C 403.846 362.481, 403.819 361.683, 402.817 360.078 C 401.292 357.636, 400.086 357.486, 397.454 359.410 M 414.159 360.601 C 411.985 362.124, 411.957 362.295, 413.592 364.101 C 415.678 366.406, 417.331 366.511, 419.045 364.445 C 420.120 363.151, 420.010 362.566, 418.390 360.946 C 416.581 359.137, 416.284 359.112, 414.159 360.601 M 178.378 362.352 C 175.553 364.781, 175.542 364.836, 177.414 366.905 C 179.848 369.594, 180.599 369.542, 182.564 366.543 C 183.989 364.368, 184.005 363.845, 182.705 361.989 L 181.236 359.893 178.378 362.352 M 429.736 362.451 C 427.440 364.130, 427.546 365.228, 430.250 367.750 C 432.479 369.830, 432.522 369.831, 434.868 367.919 C 436.854 366.300, 437.028 365.739, 435.950 364.440 C 433.740 361.776, 431.597 361.091, 429.736 362.451 M 405.149 366.888 L 402.916 368.572 405.352 370.861 C 407.484 372.864, 408.051 372.985, 409.894 371.834 C 412.620 370.132, 412.559 368.596, 409.691 366.717 C 407.610 365.354, 407.160 365.370, 405.149 366.888 M 420.748 368.394 C 419.090 369.652, 419.107 369.867, 421.070 372.362 C 423.399 375.323, 426.126 375.758, 428.024 373.471 C 429.077 372.202, 428.898 371.520, 426.972 369.471 C 424.351 366.680, 423.255 366.490, 420.748 368.394 M 277.517 374.105 C 277.853 376.088, 278.915 380.256, 279.877 383.368 L 281.628 389.025 283.988 386.513 C 285.286 385.131, 287.058 383.971, 287.924 383.937 C 288.925 383.896, 288.679 383.543, 287.250 382.969 C 282.452 381.040, 285.789 375.395, 292.358 374.329 C 296.835 373.603, 297.895 375.500, 295.592 380.115 C 293.670 383.969, 293.661 384.067, 295.288 383.443 C 297.057 382.764, 302.399 388.518, 301.697 390.346 C 301.388 391.153, 302.005 392.599, 303.067 393.561 C 304.130 394.523, 305 396.085, 305 397.033 C 305 399.300, 302.421 401.375, 300.513 400.643 C 299.681 400.324, 299 400.450, 299 400.923 C 299 402.442, 304.242 403.227, 305.101 401.837 C 306.726 399.207, 307.416 402.371, 307.266 411.767 C 307.144 419.318, 306.762 421.701, 305.526 422.605 C 304.129 423.626, 304.120 423.832, 305.454 424.344 C 306.317 424.675, 306.714 425.581, 306.379 426.454 C 306.036 427.347, 306.459 428.239, 307.396 428.599 C 310.812 429.909, 307.732 436.686, 304.147 435.749 C 302.611 435.347, 302.073 435.885, 301.588 438.308 C 300.823 442.136, 301.390 442.673, 307.079 443.506 L 311.657 444.176 311.699 440.838 C 311.722 439.002, 311.912 435.357, 312.121 432.738 C 312.428 428.873, 312.170 427.871, 310.750 427.421 C 308.612 426.742, 308.465 423.090, 310.468 420.441 C 311.276 419.374, 311.951 417.712, 311.968 416.750 C 311.986 415.788, 312.436 415, 312.969 415 C 313.501 415, 313.694 414.366, 313.396 413.590 C 312.629 411.592, 315.582 406.320, 318.562 404.368 C 320.625 403.015, 321.549 402.929, 323.663 403.892 C 325.970 404.944, 326.180 405.473, 325.635 408.880 C 325.090 412.288, 325.299 412.815, 327.615 413.870 C 329.685 414.814, 330.083 415.534, 329.598 417.464 C 329.265 418.791, 329.445 420.157, 329.997 420.498 C 330.549 420.839, 331.506 423.125, 332.124 425.576 C 333.358 430.477, 333.985 431.245, 335.828 430.106 C 336.785 429.515, 336.720 428.692, 335.536 426.422 C 332.617 420.824, 334.508 418.666, 337.659 424 C 339.941 427.864, 340.777 427.779, 342.564 423.500 C 344.331 419.272, 346.587 418.693, 345.489 422.750 C 345.080 424.262, 344.789 428.969, 344.842 433.210 C 344.945 441.411, 344.722 441.830, 339.587 443.057 C 337.750 443.496, 342.257 443.837, 350.716 443.898 C 361.752 443.977, 365.671 443.648, 368.235 442.425 C 372.168 440.550, 372.187 442.813, 367.952 409.500 C 364.786 384.595, 363.315 376.165, 361.811 374.304 C 359.693 371.682, 349.617 370.931, 313.704 370.718 L 276.908 370.500 277.517 374.105 M 260.923 372.281 L 255.345 373.272 254.097 385.386 C 253.410 392.049, 252.452 399.525, 251.968 402 C 250.230 410.882, 248 425.666, 248 428.308 C 248 430.610, 248.419 431, 250.890 431 C 253.499 431, 271.168 434.314, 275.100 435.540 C 276.452 435.962, 276.795 434.702, 277.308 427.423 C 277.840 419.888, 278.236 418.510, 280.468 416.442 C 284.247 412.940, 285.192 409.649, 283.898 404.508 C 283.201 401.742, 282.344 400.315, 281.559 400.616 C 279.175 401.530, 277.987 398.654, 279.164 394.819 C 280.064 391.883, 279.897 390.136, 278.209 384.879 C 277.082 381.370, 275.849 376.813, 275.469 374.750 C 274.796 371.100, 274.667 371.004, 270.639 371.145 C 268.362 371.225, 263.990 371.736, 260.923 372.281 M 412.207 374.703 L 409.914 376.301 412.644 379.150 C 415.855 382.502, 417.082 382.672, 419.418 380.091 C 421.062 378.274, 421.036 378.057, 418.892 375.591 C 416.304 372.615, 415.380 372.492, 412.207 374.703 M 285.070 398.191 C 285.032 399.671, 285.450 401.160, 286 401.500 C 287.194 402.238, 287.194 400.278, 286 397.500 C 285.233 395.714, 285.133 395.788, 285.070 398.191 M 336.459 440.067 C 336.096 440.653, 336.040 441.373, 336.333 441.667 C 337.050 442.383, 339 441.121, 339 439.941 C 339 438.663, 337.274 438.748, 336.459 440.067 M 247.086 475.021 C 240.715 476.365, 235.177 480.396, 232.943 485.316 C 229.560 492.768, 230.790 503.220, 235.742 509.105 C 238.904 512.863, 242.336 514.429, 250.757 515.956 C 260.362 517.698, 272.978 514.856, 276.773 510.096 C 280.345 505.615, 282 500.838, 282 495.008 C 282 485.251, 278.704 479.863, 270.684 476.512 C 266.049 474.576, 253.080 473.756, 247.086 475.021 M 457 474.932 C 447.867 476.763, 442.571 481.761, 440.806 490.212 C 438.405 501.712, 444.765 512.420, 455.928 515.670 C 460.651 517.045, 462.778 517.122, 469.888 516.172 C 480.397 514.769, 484.725 512.567, 488.308 506.799 C 494.207 497.301, 492.275 484.192, 484.158 478.645 C 478.481 474.765, 466.204 473.086, 457 474.932 M 128 495.500 L 128 516 133 516 L 138 516 138 510.500 L 138 505 150.288 505 C 161.060 505, 163.120 504.722, 166.980 502.750 C 172.544 499.907, 175.100 496.409, 175.665 490.864 C 176.220 485.411, 173.808 480.414, 169.102 477.270 C 165.870 475.110, 164.787 475, 146.852 475 L 128 475 128 495.500 M 180 495.555 L 180 516.110 184.750 515.805 L 189.500 515.500 189.802 510.250 L 190.105 505 198.918 505 L 207.731 505 211.115 510.250 C 214.422 515.379, 214.621 515.507, 219.750 515.802 C 226.004 516.162, 226.168 515.619, 221.895 508.674 C 218.924 503.846, 218.870 503.570, 220.645 502.295 C 224.945 499.206, 225.948 497.906, 226.975 494.093 C 228.210 489.506, 227.597 485.921, 224.775 481.226 C 221.341 475.513, 219.179 475, 198.550 475 L 180 475 180 495.555 M 305 478.974 L 305 483 315 483 L 325 483 325 491.050 C 325 504.349, 322.384 507.239, 310.202 507.402 C 303.098 507.497, 302.737 507.385, 299.920 504.234 C 298.075 502.171, 297 499.869, 297 497.984 C 297 495.028, 296.948 495, 291.412 495 L 285.824 495 286.530 499.250 C 287.459 504.839, 289.252 508.193, 292.995 511.342 C 297.112 514.807, 301.881 515.988, 311.782 515.994 C 330.066 516.007, 335.268 509.626, 335.422 487 L 335.500 475.500 320.250 475.224 L 305 474.948 305 478.974 M 340 495.500 L 340 516 361.557 516 L 383.115 516 382.807 511.750 L 382.500 507.500 366.250 507.225 L 350 506.950 350 502.975 L 350 499 366.500 499 L 383 499 383 495 L 383 491 366.500 491 L 350 491 350 487 L 350 483 366.500 483 L 383 483 383 479 L 383 475 361.500 475 L 340 475 340 495.500 M 386.390 476.427 C 386.088 477.212, 385.990 478.900, 386.171 480.177 C 386.485 482.391, 386.968 482.523, 396.500 483 L 406.500 483.500 406.775 499.750 L 407.050 516 412.025 516 L 417 516 417 499.500 L 417 483 427 483 L 437 483 437 479 L 437 475 411.969 475 C 391.208 475, 386.844 475.244, 386.390 476.427 M 138 489.584 L 138 496.167 149.975 495.834 C 160.661 495.536, 162.182 495.268, 164.106 493.341 C 165.717 491.728, 166.094 490.510, 165.596 488.525 C 164.585 484.497, 159.827 483, 148.032 483 L 138 483 138 489.584 M 190 489.476 L 190 496.167 202.091 495.834 C 213.389 495.522, 214.306 495.345, 216.091 493.139 C 218.527 490.126, 218.496 489.688, 215.595 486.316 C 213.262 483.603, 212.848 483.509, 201.595 483.152 L 190 482.784 190 489.476 M 249.129 484.001 C 244.117 485.185, 241.789 488.060, 241.306 493.667 C 240.663 501.120, 243.184 505.158, 249.500 506.797 C 254.797 508.172, 263.796 507.715, 267.190 505.898 C 271.260 503.720, 273.324 494.001, 270.864 488.601 C 268.738 483.935, 258.544 481.777, 249.129 484.001 M 458.232 484.169 C 452.854 485.373, 450.615 488.556, 450.615 495 C 450.615 504.528, 456.453 508.660, 468.240 507.476 C 476.546 506.642, 479.682 504.396, 481.046 498.306 C 483.750 486.231, 474.535 480.520, 458.232 484.169 M 88.228 525.731 C 71.437 529.080, 60.604 541.045, 57.813 559.324 C 54.479 581.158, 66.036 601.507, 84.644 606.568 C 89.327 607.842, 91.056 608.828, 91.916 610.716 C 96.731 621.282, 108.940 627.939, 123.586 627.984 L 128.672 628 130.336 622.015 C 132.556 614.031, 132.548 614, 128.316 614 C 123.046 614, 113.390 611.088, 111.412 608.903 C 109.828 607.152, 109.840 607.006, 111.614 606.436 C 117.308 604.608, 121.337 602.333, 124.593 599.110 C 145.937 577.979, 140.144 537.681, 114.377 528.040 C 106.619 525.137, 95.934 524.194, 88.228 525.731 M 378.657 524.676 C 378.475 524.859, 375.683 525.496, 372.453 526.093 C 364.049 527.647, 357.972 531.089, 352.200 537.565 C 344.598 546.095, 342.466 552.654, 342.636 567 C 342.821 582.585, 344.869 588.052, 353.909 597.091 C 364.294 607.477, 376.547 610.957, 390.500 607.483 C 409.858 602.665, 419.111 592.233, 421.353 572.702 C 424.183 548.041, 412.515 529.859, 391.467 526.129 C 383.978 524.802, 379.086 524.247, 378.657 524.676 M 150.380 527.453 C 150.057 528.295, 149.980 541.475, 150.210 556.742 C 150.591 582.056, 150.818 585.028, 152.789 590.500 C 156.978 602.128, 167.072 607.997, 183.303 608.242 C 192.582 608.382, 200.440 606.027, 205.689 601.534 C 214.460 594.026, 216.249 585.004, 215.807 550.500 L 215.500 526.500 206.500 526.500 L 197.500 526.500 197 555 C 196.541 581.150, 196.339 583.738, 194.546 586.386 C 189.391 593.999, 175.594 593.668, 171.316 585.829 C 169.723 582.908, 169.439 579.067, 169 554.500 L 168.500 526.500 159.734 526.211 C 152.601 525.976, 150.858 526.207, 150.380 527.453 M 232.508 527.119 C 232.215 527.881, 232.094 546.054, 232.238 567.502 L 232.500 606.500 241.750 606.788 L 251 607.075 251 567.038 L 251 527 246.640 527 C 244.241 527, 240.200 526.715, 237.659 526.367 C 234.198 525.892, 232.906 526.081, 232.508 527.119 M 262 527.012 C 262 527.568, 267.582 536.389, 274.404 546.614 L 286.808 565.204 278.315 577.087 C 269.545 589.358, 261 603.491, 261 605.726 C 261 606.673, 263.561 607, 270.980 607 L 280.959 607 283.125 602.750 C 284.315 600.413, 288.037 594.311, 291.395 589.190 L 297.500 579.881 300 583.051 C 301.375 584.795, 305.045 590.784, 308.155 596.361 L 313.811 606.500 324.069 606.787 C 329.710 606.945, 334.686 606.714, 335.126 606.274 C 336.026 605.374, 324.322 585.638, 315.725 573.559 L 310.073 565.617 312.249 562.059 C 313.445 560.101, 319.011 551.526, 324.618 543.003 C 330.225 534.479, 334.603 527.167, 334.347 526.753 C 334.091 526.339, 329.440 526, 324.010 526 L 314.138 526 306.819 537.991 C 302.794 544.586, 299.270 549.986, 298.988 549.991 C 298.707 549.996, 295.363 544.938, 291.558 538.750 C 287.753 532.563, 284.158 527.169, 283.570 526.765 C 281.895 525.615, 262 525.842, 262 527.012 M 429.425 527.336 C 429.137 528.085, 429.036 531.804, 429.201 535.599 L 429.500 542.500 441.250 542.782 L 453 543.063 453 575.069 L 453 607.075 462.250 606.788 L 471.500 606.500 471.764 574.782 L 472.028 543.063 483.764 542.782 L 495.500 542.500 495.500 534.500 L 495.500 526.500 462.724 526.236 C 435.796 526.020, 429.854 526.216, 429.425 527.336 M 506.463 527.236 C 506.195 527.934, 506.094 546.054, 506.238 567.502 L 506.500 606.500 534.750 606.766 L 563 607.031 563 599.016 L 563 591 544 591 L 525 591 525 582.025 L 525 573.051 540.750 572.775 L 556.500 572.500 556.500 565 L 556.500 557.500 540.750 557.225 L 525 556.949 525 549.475 L 525 542 543.042 542 L 561.084 542 560.792 534.250 L 560.500 526.500 533.725 526.234 C 512.820 526.026, 506.843 526.245, 506.463 527.236 M 92.365 541.931 C 80.423 544.862, 73.917 560.884, 78.404 576.316 C 80.725 584.301, 86.770 590.556, 93.071 591.493 C 113.315 594.505, 125.704 568.245, 112.874 549.521 C 108.744 543.493, 99.675 540.137, 92.365 541.931 M 377.500 541.898 C 373.001 543.030, 370.598 544.555, 367.179 548.449 C 359.100 557.650, 359.817 577.356, 368.558 586.356 C 378.003 596.082, 393.686 592.480, 399.771 579.188 C 401.848 574.652, 402.362 572.011, 402.338 566.008 C 402.305 557.835, 400.861 553.348, 396.663 548.369 C 392.235 543.118, 383.875 540.295, 377.500 541.898 M 491 612.543 C 489.625 612.761, 466.675 613.640, 440 614.497 C 389.392 616.123, 321.508 619.227, 297.500 621.012 C 236.890 625.519, 216.321 627.391, 188.500 630.930 C 175.850 632.540, 162.350 634.134, 158.500 634.474 C 143.545 635.791, 55.146 650.661, 53.550 652.127 C 51.737 653.793, 60.505 652.959, 76.500 649.946 C 93.572 646.730, 133.959 641.181, 163.500 637.993 C 173.400 636.924, 182.400 635.838, 183.500 635.580 C 184.600 635.322, 194.950 634.611, 206.500 634.001 C 218.050 633.390, 230.200 632.463, 233.500 631.941 C 257.765 628.101, 449.183 619.918, 510.500 620.100 C 527.025 620.149, 536.336 620.508, 534.500 621.025 C 530.032 622.282, 493.847 625.731, 466 627.554 C 452.525 628.436, 440.375 629.536, 439 630 C 435.051 631.330, 448.892 631.132, 470.500 629.548 C 480.950 628.782, 502.100 627.224, 517.500 626.086 C 532.900 624.948, 549.894 623.746, 555.265 623.414 C 563.328 622.916, 565.202 622.491, 566.012 620.978 C 567.475 618.244, 566.249 616.268, 562.681 615.608 C 551.369 613.515, 498.990 611.275, 491 612.543" stroke="none" fill="#040404" fill-rule="evenodd"/></svg>