<?xml version="1.0" standalone="no"?>
<!DOCTYPE svg PUBLIC "-//W3C//DTD SVG 20010904//EN"
 "http://www.w3.org/TR/2001/REC-SVG-20010904/DTD/svg10.dtd">
<svg version="1.0" xmlns="http://www.w3.org/2000/svg"
 width="100.000000pt" height="159.000000pt" viewBox="0 0 100.000000 159.000000"
 preserveAspectRatio="xMidYMid meet">

<g transform="translate(0.000000,159.000000) scale(0.100000,-0.100000)"
fill="#000000" stroke="none">
<path d="M75 1580 c-11 -4 -31 -20 -45 -35 l-25 -27 -3 -711 c-3 -651 -2 -715
14 -744 32 -62 39 -63 489 -63 366 0 410 2 436 17 61 36 59 13 59 784 l0 703
-22 33 c-13 18 -36 37 -52 43 -35 12 -821 13 -851 0z m849 -13 c16 -12 1 -43
-194 -390 -117 -207 -216 -377 -220 -377 -4 0 -108 169 -231 376 -210 355
-222 377 -204 390 27 20 822 21 849 1z m-641 -418 c120 -202 217 -370 217
-373 0 -7 -349 -633 -393 -705 -11 -19 -16 -32 -10 -28 6 4 100 166 209 362
110 195 201 354 204 354 3 0 99 -160 215 -355 115 -196 214 -358 219 -361 5
-3 7 -2 4 3 -3 5 -101 170 -218 368 -185 313 -211 361 -202 381 16 35 413 739
422 749 5 4 16 -6 24 -23 15 -28 16 -105 14 -741 l-3 -710 -28 -27 -27 -28
-414 -3 c-260 -2 -423 1 -440 7 -14 6 -35 25 -46 43 -19 32 -20 51 -20 731 0
617 2 702 16 729 15 28 16 29 28 12 7 -11 110 -184 229 -385z"/>
</g>
</svg>
